<?xml version="1.0" encoding="UTF-8"?>
<svg xmlns="http://www.w3.org/2000/svg" xmlns:xlink="http://www.w3.org/1999/xlink" viewBox="-400 -220 800 440" preserveAspectRatio="xMidYMid meet" role="img" aria-label="Inference Endpoints engine illustration">
<defs>
<linearGradient id="ep-fade-t" x1="0" y1="0" x2="0" y2="1">
<stop offset="0" stop-color="white" stop-opacity="1" />
<stop offset="1" stop-color="white" stop-opacity="0" />
</linearGradient>
<linearGradient id="ep-fade-b" x1="0" y1="0" x2="0" y2="1">
<stop offset="0" stop-color="white" stop-opacity="0" />
<stop offset="1" stop-color="white" stop-opacity="1" />
</linearGradient>
<linearGradient id="ep-fade-l" x1="0" y1="0" x2="1" y2="0">
<stop offset="0" stop-color="white" stop-opacity="1" />
<stop offset="1" stop-color="white" stop-opacity="0" />
</linearGradient>
<linearGradient id="ep-fade-r" x1="0" y1="0" x2="1" y2="0">
<stop offset="0" stop-color="white" stop-opacity="0" />
<stop offset="1" stop-color="white" stop-opacity="1" />
</linearGradient>
</defs>
<g fill="none" stroke="#EDEFF2" stroke-width="1"><path d="M -561.18 -378.00 L -514.42 -351.00 L -514.42 -297.00 L -561.18 -270.00 L -607.95 -297.00 L -607.95 -351.00 Z M -561.18 -324.00 L -561.18 -378.00 M -561.18 -324.00 L -514.42 -297.00 M -561.18 -324.00 L -607.95 -297.00 M -467.65 -378.00 L -420.89 -351.00 L -420.89 -297.00 L -467.65 -270.00 L -514.42 -297.00 L -514.42 -351.00 Z M -467.65 -324.00 L -467.65 -378.00 M -467.65 -324.00 L -420.89 -297.00 M -467.65 -324.00 L -514.42 -297.00 M -374.12 -378.00 L -327.36 -351.00 L -327.36 -297.00 L -374.12 -270.00 L -420.89 -297.00 L -420.89 -351.00 Z M -374.12 -324.00 L -374.12 -378.00 M -374.12 -324.00 L -327.36 -297.00 M -374.12 -324.00 L -420.89 -297.00 M -280.59 -378.00 L -233.83 -351.00 L -233.83 -297.00 L -280.59 -270.00 L -327.36 -297.00 L -327.36 -351.00 Z M -280.59 -324.00 L -280.59 -378.00 M -280.59 -324.00 L -233.83 -297.00 M -280.59 -324.00 L -327.36 -297.00 M -187.06 -378.00 L -140.30 -351.00 L -140.30 -297.00 L -187.06 -270.00 L -233.83 -297.00 L -233.83 -351.00 Z M -187.06 -324.00 L -187.06 -378.00 M -187.06 -324.00 L -140.30 -297.00 M -187.06 -324.00 L -233.83 -297.00 M -93.53 -378.00 L -46.77 -351.00 L -46.77 -297.00 L -93.53 -270.00 L -140.30 -297.00 L -140.30 -351.00 Z M -93.53 -324.00 L -93.53 -378.00 M -93.53 -324.00 L -46.77 -297.00 M -93.53 -324.00 L -140.30 -297.00 M 0.00 -378.00 L 46.77 -351.00 L 46.77 -297.00 L 0.00 -270.00 L -46.77 -297.00 L -46.77 -351.00 Z M 0.00 -324.00 L 0.00 -378.00 M 0.00 -324.00 L 46.77 -297.00 M 0.00 -324.00 L -46.77 -297.00 M 93.53 -378.00 L 140.30 -351.00 L 140.30 -297.00 L 93.53 -270.00 L 46.77 -297.00 L 46.77 -351.00 Z M 93.53 -324.00 L 93.53 -378.00 M 93.53 -324.00 L 140.30 -297.00 M 93.53 -324.00 L 46.77 -297.00 M 187.06 -378.00 L 233.83 -351.00 L 233.83 -297.00 L 187.06 -270.00 L 140.30 -297.00 L 140.30 -351.00 Z M 187.06 -324.00 L 187.06 -378.00 M 187.06 -324.00 L 233.83 -297.00 M 187.06 -324.00 L 140.30 -297.00 M 280.59 -378.00 L 327.36 -351.00 L 327.36 -297.00 L 280.59 -270.00 L 233.83 -297.00 L 233.83 -351.00 Z M 280.59 -324.00 L 280.59 -378.00 M 280.59 -324.00 L 327.36 -297.00 M 280.59 -324.00 L 233.83 -297.00 M 374.12 -378.00 L 420.89 -351.00 L 420.89 -297.00 L 374.12 -270.00 L 327.36 -297.00 L 327.36 -351.00 Z M 374.12 -324.00 L 374.12 -378.00 M 374.12 -324.00 L 420.89 -297.00 M 374.12 -324.00 L 327.36 -297.00 M 467.65 -378.00 L 514.42 -351.00 L 514.42 -297.00 L 467.65 -270.00 L 420.89 -297.00 L 420.89 -351.00 Z M 467.65 -324.00 L 467.65 -378.00 M 467.65 -324.00 L 514.42 -297.00 M 467.65 -324.00 L 420.89 -297.00 M 561.18 -378.00 L 607.95 -351.00 L 607.95 -297.00 L 561.18 -270.00 L 514.42 -297.00 L 514.42 -351.00 Z M 561.18 -324.00 L 561.18 -378.00 M 561.18 -324.00 L 607.95 -297.00 M 561.18 -324.00 L 514.42 -297.00 M -514.42 -297.00 L -467.65 -270.00 L -467.65 -216.00 L -514.42 -189.00 L -561.18 -216.00 L -561.18 -270.00 Z M -514.42 -243.00 L -514.42 -297.00 M -514.42 -243.00 L -467.65 -216.00 M -514.42 -243.00 L -561.18 -216.00 M -420.89 -297.00 L -374.12 -270.00 L -374.12 -216.00 L -420.89 -189.00 L -467.65 -216.00 L -467.65 -270.00 Z M -420.89 -243.00 L -420.89 -297.00 M -420.89 -243.00 L -374.12 -216.00 M -420.89 -243.00 L -467.65 -216.00 M -327.36 -297.00 L -280.59 -270.00 L -280.59 -216.00 L -327.36 -189.00 L -374.12 -216.00 L -374.12 -270.00 Z M -327.36 -243.00 L -327.36 -297.00 M -327.36 -243.00 L -280.59 -216.00 M -327.36 -243.00 L -374.12 -216.00 M -233.83 -297.00 L -187.06 -270.00 L -187.06 -216.00 L -233.83 -189.00 L -280.59 -216.00 L -280.59 -270.00 Z M -233.83 -243.00 L -233.83 -297.00 M -233.83 -243.00 L -187.06 -216.00 M -233.83 -243.00 L -280.59 -216.00 M -140.30 -297.00 L -93.53 -270.00 L -93.53 -216.00 L -140.30 -189.00 L -187.06 -216.00 L -187.06 -270.00 Z M -140.30 -243.00 L -140.30 -297.00 M -140.30 -243.00 L -93.53 -216.00 M -140.30 -243.00 L -187.06 -216.00 M -46.77 -297.00 L 0.00 -270.00 L 0.00 -216.00 L -46.77 -189.00 L -93.53 -216.00 L -93.53 -270.00 Z M -46.77 -243.00 L -46.77 -297.00 M -46.77 -243.00 L 0.00 -216.00 M -46.77 -243.00 L -93.53 -216.00 M 46.77 -297.00 L 93.53 -270.00 L 93.53 -216.00 L 46.77 -189.00 L 0.00 -216.00 L 0.00 -270.00 Z M 46.77 -243.00 L 46.77 -297.00 M 46.77 -243.00 L 93.53 -216.00 M 46.77 -243.00 L 0.00 -216.00 M 140.30 -297.00 L 187.06 -270.00 L 187.06 -216.00 L 140.30 -189.00 L 93.53 -216.00 L 93.53 -270.00 Z M 140.30 -243.00 L 140.30 -297.00 M 140.30 -243.00 L 187.06 -216.00 M 140.30 -243.00 L 93.53 -216.00 M 233.83 -297.00 L 280.59 -270.00 L 280.59 -216.00 L 233.83 -189.00 L 187.06 -216.00 L 187.06 -270.00 Z M 233.83 -243.00 L 233.83 -297.00 M 233.83 -243.00 L 280.59 -216.00 M 233.83 -243.00 L 187.06 -216.00 M 327.36 -297.00 L 374.12 -270.00 L 374.12 -216.00 L 327.36 -189.00 L 280.59 -216.00 L 280.59 -270.00 Z M 327.36 -243.00 L 327.36 -297.00 M 327.36 -243.00 L 374.12 -216.00 M 327.36 -243.00 L 280.59 -216.00 M 420.89 -297.00 L 467.65 -270.00 L 467.65 -216.00 L 420.89 -189.00 L 374.12 -216.00 L 374.12 -270.00 Z M 420.89 -243.00 L 420.89 -297.00 M 420.89 -243.00 L 467.65 -216.00 M 420.89 -243.00 L 374.12 -216.00 M 514.42 -297.00 L 561.18 -270.00 L 561.18 -216.00 L 514.42 -189.00 L 467.65 -216.00 L 467.65 -270.00 Z M 514.42 -243.00 L 514.42 -297.00 M 514.42 -243.00 L 561.18 -216.00 M 514.42 -243.00 L 467.65 -216.00 M 607.95 -297.00 L 654.72 -270.00 L 654.72 -216.00 L 607.95 -189.00 L 561.18 -216.00 L 561.18 -270.00 Z M 607.95 -243.00 L 607.95 -297.00 M 607.95 -243.00 L 654.72 -216.00 M 607.95 -243.00 L 561.18 -216.00 M -561.18 -216.00 L -514.42 -189.00 L -514.42 -135.00 L -561.18 -108.00 L -607.95 -135.00 L -607.95 -189.00 Z M -561.18 -162.00 L -561.18 -216.00 M -561.18 -162.00 L -514.42 -135.00 M -561.18 -162.00 L -607.95 -135.00 M -467.65 -216.00 L -420.89 -189.00 L -420.89 -135.00 L -467.65 -108.00 L -514.42 -135.00 L -514.42 -189.00 Z M -467.65 -162.00 L -467.65 -216.00 M -467.65 -162.00 L -420.89 -135.00 M -467.65 -162.00 L -514.42 -135.00 M -374.12 -216.00 L -327.36 -189.00 L -327.36 -135.00 L -374.12 -108.00 L -420.89 -135.00 L -420.89 -189.00 Z M -374.12 -162.00 L -374.12 -216.00 M -374.12 -162.00 L -327.36 -135.00 M -374.12 -162.00 L -420.89 -135.00 M -280.59 -216.00 L -233.83 -189.00 L -233.83 -135.00 L -280.59 -108.00 L -327.36 -135.00 L -327.36 -189.00 Z M -280.59 -162.00 L -280.59 -216.00 M -280.59 -162.00 L -233.83 -135.00 M -280.59 -162.00 L -327.36 -135.00 M 0.00 -216.00 L 46.77 -189.00 L 46.77 -135.00 L 0.00 -108.00 L -46.77 -135.00 L -46.77 -189.00 Z M 0.00 -162.00 L 0.00 -216.00 M 0.00 -162.00 L 46.77 -135.00 M 0.00 -162.00 L -46.77 -135.00 M 280.59 -216.00 L 327.36 -189.00 L 327.36 -135.00 L 280.59 -108.00 L 233.83 -135.00 L 233.83 -189.00 Z M 280.59 -162.00 L 280.59 -216.00 M 280.59 -162.00 L 327.36 -135.00 M 280.59 -162.00 L 233.83 -135.00 M 374.12 -216.00 L 420.89 -189.00 L 420.89 -135.00 L 374.12 -108.00 L 327.36 -135.00 L 327.36 -189.00 Z M 374.12 -162.00 L 374.12 -216.00 M 374.12 -162.00 L 420.89 -135.00 M 374.12 -162.00 L 327.36 -135.00 M 467.65 -216.00 L 514.42 -189.00 L 514.42 -135.00 L 467.65 -108.00 L 420.89 -135.00 L 420.89 -189.00 Z M 467.65 -162.00 L 467.65 -216.00 M 467.65 -162.00 L 514.42 -135.00 M 467.65 -162.00 L 420.89 -135.00 M 561.18 -216.00 L 607.95 -189.00 L 607.95 -135.00 L 561.18 -108.00 L 514.42 -135.00 L 514.42 -189.00 Z M 561.18 -162.00 L 561.18 -216.00 M 561.18 -162.00 L 607.95 -135.00 M 561.18 -162.00 L 514.42 -135.00 M -514.42 -135.00 L -467.65 -108.00 L -467.65 -54.00 L -514.42 -27.00 L -561.18 -54.00 L -561.18 -108.00 Z M -514.42 -81.00 L -514.42 -135.00 M -514.42 -81.00 L -467.65 -54.00 M -514.42 -81.00 L -561.18 -54.00 M -420.89 -135.00 L -374.12 -108.00 L -374.12 -54.00 L -420.89 -27.00 L -467.65 -54.00 L -467.65 -108.00 Z M -420.89 -81.00 L -420.89 -135.00 M -420.89 -81.00 L -374.12 -54.00 M -420.89 -81.00 L -467.65 -54.00 M -327.36 -135.00 L -280.59 -108.00 L -280.59 -54.00 L -327.36 -27.00 L -374.12 -54.00 L -374.12 -108.00 Z M -327.36 -81.00 L -327.36 -135.00 M -327.36 -81.00 L -280.59 -54.00 M -327.36 -81.00 L -374.12 -54.00 M -233.83 -135.00 L -187.06 -108.00 L -187.06 -54.00 L -233.83 -27.00 L -280.59 -54.00 L -280.59 -108.00 Z M -233.83 -81.00 L -233.83 -135.00 M -233.83 -81.00 L -187.06 -54.00 M -233.83 -81.00 L -280.59 -54.00 M -140.30 -135.00 L -93.53 -108.00 L -93.53 -54.00 L -140.30 -27.00 L -187.06 -54.00 L -187.06 -108.00 Z M -140.30 -81.00 L -140.30 -135.00 M -140.30 -81.00 L -93.53 -54.00 M -140.30 -81.00 L -187.06 -54.00 M -46.77 -135.00 L 0.00 -108.00 L 0.00 -54.00 L -46.77 -27.00 L -93.53 -54.00 L -93.53 -108.00 Z M -46.77 -81.00 L -46.77 -135.00 M -46.77 -81.00 L 0.00 -54.00 M -46.77 -81.00 L -93.53 -54.00 M 46.77 -135.00 L 93.53 -108.00 L 93.53 -54.00 L 46.77 -27.00 L 0.00 -54.00 L 0.00 -108.00 Z M 46.77 -81.00 L 46.77 -135.00 M 46.77 -81.00 L 93.53 -54.00 M 46.77 -81.00 L 0.00 -54.00 M 140.30 -135.00 L 187.06 -108.00 L 187.06 -54.00 L 140.30 -27.00 L 93.53 -54.00 L 93.53 -108.00 Z M 140.30 -81.00 L 140.30 -135.00 M 140.30 -81.00 L 187.06 -54.00 M 140.30 -81.00 L 93.53 -54.00 M 233.83 -135.00 L 280.59 -108.00 L 280.59 -54.00 L 233.83 -27.00 L 187.06 -54.00 L 187.06 -108.00 Z M 233.83 -81.00 L 233.83 -135.00 M 233.83 -81.00 L 280.59 -54.00 M 233.83 -81.00 L 187.06 -54.00 M 327.36 -135.00 L 374.12 -108.00 L 374.12 -54.00 L 327.36 -27.00 L 280.59 -54.00 L 280.59 -108.00 Z M 327.36 -81.00 L 327.36 -135.00 M 327.36 -81.00 L 374.12 -54.00 M 327.36 -81.00 L 280.59 -54.00 M 420.89 -135.00 L 467.65 -108.00 L 467.65 -54.00 L 420.89 -27.00 L 374.12 -54.00 L 374.12 -108.00 Z M 420.89 -81.00 L 420.89 -135.00 M 420.89 -81.00 L 467.65 -54.00 M 420.89 -81.00 L 374.12 -54.00 M 514.42 -135.00 L 561.18 -108.00 L 561.18 -54.00 L 514.42 -27.00 L 467.65 -54.00 L 467.65 -108.00 Z M 514.42 -81.00 L 514.42 -135.00 M 514.42 -81.00 L 561.18 -54.00 M 514.42 -81.00 L 467.65 -54.00 M 607.95 -135.00 L 654.72 -108.00 L 654.72 -54.00 L 607.95 -27.00 L 561.18 -54.00 L 561.18 -108.00 Z M 607.95 -81.00 L 607.95 -135.00 M 607.95 -81.00 L 654.72 -54.00 M 607.95 -81.00 L 561.18 -54.00 M -561.18 -54.00 L -514.42 -27.00 L -514.42 27.00 L -561.18 54.00 L -607.95 27.00 L -607.95 -27.00 Z M -561.18 0.00 L -561.18 -54.00 M -561.18 0.00 L -514.42 27.00 M -561.18 0.00 L -607.95 27.00 M -467.65 -54.00 L -420.89 -27.00 L -420.89 27.00 L -467.65 54.00 L -514.42 27.00 L -514.42 -27.00 Z M -467.65 0.00 L -467.65 -54.00 M -467.65 0.00 L -420.89 27.00 M -467.65 0.00 L -514.42 27.00 M -374.12 -54.00 L -327.36 -27.00 L -327.36 27.00 L -374.12 54.00 L -420.89 27.00 L -420.89 -27.00 Z M -374.12 0.00 L -374.12 -54.00 M -374.12 0.00 L -327.36 27.00 M -374.12 0.00 L -420.89 27.00 M -93.53 -54.00 L -46.77 -27.00 L -46.77 27.00 L -93.53 54.00 L -140.30 27.00 L -140.30 -27.00 Z M -93.53 0.00 L -93.53 -54.00 M -93.53 0.00 L -46.77 27.00 M -93.53 0.00 L -140.30 27.00 M 93.53 -54.00 L 140.30 -27.00 L 140.30 27.00 L 93.53 54.00 L 46.77 27.00 L 46.77 -27.00 Z M 93.53 0.00 L 93.53 -54.00 M 93.53 0.00 L 140.30 27.00 M 93.53 0.00 L 46.77 27.00 M 374.12 -54.00 L 420.89 -27.00 L 420.89 27.00 L 374.12 54.00 L 327.36 27.00 L 327.36 -27.00 Z M 374.12 0.00 L 374.12 -54.00 M 374.12 0.00 L 420.89 27.00 M 374.12 0.00 L 327.36 27.00 M 467.65 -54.00 L 514.42 -27.00 L 514.42 27.00 L 467.65 54.00 L 420.89 27.00 L 420.89 -27.00 Z M 467.65 0.00 L 467.65 -54.00 M 467.65 0.00 L 514.42 27.00 M 467.65 0.00 L 420.89 27.00 M 561.18 -54.00 L 607.95 -27.00 L 607.95 27.00 L 561.18 54.00 L 514.42 27.00 L 514.42 -27.00 Z M 561.18 0.00 L 561.18 -54.00 M 561.18 0.00 L 607.95 27.00 M 561.18 0.00 L 514.42 27.00 M -514.42 27.00 L -467.65 54.00 L -467.65 108.00 L -514.42 135.00 L -561.18 108.00 L -561.18 54.00 Z M -514.42 81.00 L -514.42 27.00 M -514.42 81.00 L -467.65 108.00 M -514.42 81.00 L -561.18 108.00 M -420.89 27.00 L -374.12 54.00 L -374.12 108.00 L -420.89 135.00 L -467.65 108.00 L -467.65 54.00 Z M -420.89 81.00 L -420.89 27.00 M -420.89 81.00 L -374.12 108.00 M -420.89 81.00 L -467.65 108.00 M -327.36 27.00 L -280.59 54.00 L -280.59 108.00 L -327.36 135.00 L -374.12 108.00 L -374.12 54.00 Z M -327.36 81.00 L -327.36 27.00 M -327.36 81.00 L -280.59 108.00 M -327.36 81.00 L -374.12 108.00 M -233.83 27.00 L -187.06 54.00 L -187.06 108.00 L -233.83 135.00 L -280.59 108.00 L -280.59 54.00 Z M -233.83 81.00 L -233.83 27.00 M -233.83 81.00 L -187.06 108.00 M -233.83 81.00 L -280.59 108.00 M -140.30 27.00 L -93.53 54.00 L -93.53 108.00 L -140.30 135.00 L -187.06 108.00 L -187.06 54.00 Z M -140.30 81.00 L -140.30 27.00 M -140.30 81.00 L -93.53 108.00 M -140.30 81.00 L -187.06 108.00 M -46.77 27.00 L 0.00 54.00 L 0.00 108.00 L -46.77 135.00 L -93.53 108.00 L -93.53 54.00 Z M -46.77 81.00 L -46.77 27.00 M -46.77 81.00 L 0.00 108.00 M -46.77 81.00 L -93.53 108.00 M 46.77 27.00 L 93.53 54.00 L 93.53 108.00 L 46.77 135.00 L 0.00 108.00 L 0.00 54.00 Z M 46.77 81.00 L 46.77 27.00 M 46.77 81.00 L 93.53 108.00 M 46.77 81.00 L 0.00 108.00 M 140.30 27.00 L 187.06 54.00 L 187.06 108.00 L 140.30 135.00 L 93.53 108.00 L 93.53 54.00 Z M 140.30 81.00 L 140.30 27.00 M 140.30 81.00 L 187.06 108.00 M 140.30 81.00 L 93.53 108.00 M 233.83 27.00 L 280.59 54.00 L 280.59 108.00 L 233.83 135.00 L 187.06 108.00 L 187.06 54.00 Z M 233.83 81.00 L 233.83 27.00 M 233.83 81.00 L 280.59 108.00 M 233.83 81.00 L 187.06 108.00 M 327.36 27.00 L 374.12 54.00 L 374.12 108.00 L 327.36 135.00 L 280.59 108.00 L 280.59 54.00 Z M 327.36 81.00 L 327.36 27.00 M 327.36 81.00 L 374.12 108.00 M 327.36 81.00 L 280.59 108.00 M 420.89 27.00 L 467.65 54.00 L 467.65 108.00 L 420.89 135.00 L 374.12 108.00 L 374.12 54.00 Z M 420.89 81.00 L 420.89 27.00 M 420.89 81.00 L 467.65 108.00 M 420.89 81.00 L 374.12 108.00 M 514.42 27.00 L 561.18 54.00 L 561.18 108.00 L 514.42 135.00 L 467.65 108.00 L 467.65 54.00 Z M 514.42 81.00 L 514.42 27.00 M 514.42 81.00 L 561.18 108.00 M 514.42 81.00 L 467.65 108.00 M 607.95 27.00 L 654.72 54.00 L 654.72 108.00 L 607.95 135.00 L 561.18 108.00 L 561.18 54.00 Z M 607.95 81.00 L 607.95 27.00 M 607.95 81.00 L 654.72 108.00 M 607.95 81.00 L 561.18 108.00 M -561.18 108.00 L -514.42 135.00 L -514.42 189.00 L -561.18 216.00 L -607.95 189.00 L -607.95 135.00 Z M -561.18 162.00 L -561.18 108.00 M -561.18 162.00 L -514.42 189.00 M -561.18 162.00 L -607.95 189.00 M -467.65 108.00 L -420.89 135.00 L -420.89 189.00 L -467.65 216.00 L -514.42 189.00 L -514.42 135.00 Z M -467.65 162.00 L -467.65 108.00 M -467.65 162.00 L -420.89 189.00 M -467.65 162.00 L -514.42 189.00 M -374.12 108.00 L -327.36 135.00 L -327.36 189.00 L -374.12 216.00 L -420.89 189.00 L -420.89 135.00 Z M -374.12 162.00 L -374.12 108.00 M -374.12 162.00 L -327.36 189.00 M -374.12 162.00 L -420.89 189.00 M -280.59 108.00 L -233.83 135.00 L -233.83 189.00 L -280.59 216.00 L -327.36 189.00 L -327.36 135.00 Z M -280.59 162.00 L -280.59 108.00 M -280.59 162.00 L -233.83 189.00 M -280.59 162.00 L -327.36 189.00 M -187.06 108.00 L -140.30 135.00 L -140.30 189.00 L -187.06 216.00 L -233.83 189.00 L -233.83 135.00 Z M -187.06 162.00 L -187.06 108.00 M -187.06 162.00 L -140.30 189.00 M -187.06 162.00 L -233.83 189.00 M 187.06 108.00 L 233.83 135.00 L 233.83 189.00 L 187.06 216.00 L 140.30 189.00 L 140.30 135.00 Z M 187.06 162.00 L 187.06 108.00 M 187.06 162.00 L 233.83 189.00 M 187.06 162.00 L 140.30 189.00 M 280.59 108.00 L 327.36 135.00 L 327.36 189.00 L 280.59 216.00 L 233.83 189.00 L 233.83 135.00 Z M 280.59 162.00 L 280.59 108.00 M 280.59 162.00 L 327.36 189.00 M 280.59 162.00 L 233.83 189.00 M 374.12 108.00 L 420.89 135.00 L 420.89 189.00 L 374.12 216.00 L 327.36 189.00 L 327.36 135.00 Z M 374.12 162.00 L 374.12 108.00 M 374.12 162.00 L 420.89 189.00 M 374.12 162.00 L 327.36 189.00 M 467.65 108.00 L 514.42 135.00 L 514.42 189.00 L 467.65 216.00 L 420.89 189.00 L 420.89 135.00 Z M 467.65 162.00 L 467.65 108.00 M 467.65 162.00 L 514.42 189.00 M 467.65 162.00 L 420.89 189.00 M 561.18 108.00 L 607.95 135.00 L 607.95 189.00 L 561.18 216.00 L 514.42 189.00 L 514.42 135.00 Z M 561.18 162.00 L 561.18 108.00 M 561.18 162.00 L 607.95 189.00 M 561.18 162.00 L 514.42 189.00 M -514.42 189.00 L -467.65 216.00 L -467.65 270.00 L -514.42 297.00 L -561.18 270.00 L -561.18 216.00 Z M -514.42 243.00 L -514.42 189.00 M -514.42 243.00 L -467.65 270.00 M -514.42 243.00 L -561.18 270.00 M -420.89 189.00 L -374.12 216.00 L -374.12 270.00 L -420.89 297.00 L -467.65 270.00 L -467.65 216.00 Z M -420.89 243.00 L -420.89 189.00 M -420.89 243.00 L -374.12 270.00 M -420.89 243.00 L -467.65 270.00 M -327.36 189.00 L -280.59 216.00 L -280.59 270.00 L -327.36 297.00 L -374.12 270.00 L -374.12 216.00 Z M -327.36 243.00 L -327.36 189.00 M -327.36 243.00 L -280.59 270.00 M -327.36 243.00 L -374.12 270.00 M -233.83 189.00 L -187.06 216.00 L -187.06 270.00 L -233.83 297.00 L -280.59 270.00 L -280.59 216.00 Z M -233.83 243.00 L -233.83 189.00 M -233.83 243.00 L -187.06 270.00 M -233.83 243.00 L -280.59 270.00 M -140.30 189.00 L -93.53 216.00 L -93.53 270.00 L -140.30 297.00 L -187.06 270.00 L -187.06 216.00 Z M -140.30 243.00 L -140.30 189.00 M -140.30 243.00 L -93.53 270.00 M -140.30 243.00 L -187.06 270.00 M -46.77 189.00 L 0.00 216.00 L 0.00 270.00 L -46.77 297.00 L -93.53 270.00 L -93.53 216.00 Z M -46.77 243.00 L -46.77 189.00 M -46.77 243.00 L 0.00 270.00 M -46.77 243.00 L -93.53 270.00 M 46.77 189.00 L 93.53 216.00 L 93.53 270.00 L 46.77 297.00 L 0.00 270.00 L 0.00 216.00 Z M 46.77 243.00 L 46.77 189.00 M 46.77 243.00 L 93.53 270.00 M 46.77 243.00 L 0.00 270.00 M 140.30 189.00 L 187.06 216.00 L 187.06 270.00 L 140.30 297.00 L 93.53 270.00 L 93.53 216.00 Z M 140.30 243.00 L 140.30 189.00 M 140.30 243.00 L 187.06 270.00 M 140.30 243.00 L 93.53 270.00 M 233.83 189.00 L 280.59 216.00 L 280.59 270.00 L 233.83 297.00 L 187.06 270.00 L 187.06 216.00 Z M 233.83 243.00 L 233.83 189.00 M 233.83 243.00 L 280.59 270.00 M 233.83 243.00 L 187.06 270.00 M 327.36 189.00 L 374.12 216.00 L 374.12 270.00 L 327.36 297.00 L 280.59 270.00 L 280.59 216.00 Z M 327.36 243.00 L 327.36 189.00 M 327.36 243.00 L 374.12 270.00 M 327.36 243.00 L 280.59 270.00 M 420.89 189.00 L 467.65 216.00 L 467.65 270.00 L 420.89 297.00 L 374.12 270.00 L 374.12 216.00 Z M 420.89 243.00 L 420.89 189.00 M 420.89 243.00 L 467.65 270.00 M 420.89 243.00 L 374.12 270.00 M 514.42 189.00 L 561.18 216.00 L 561.18 270.00 L 514.42 297.00 L 467.65 270.00 L 467.65 216.00 Z M 514.42 243.00 L 514.42 189.00 M 514.42 243.00 L 561.18 270.00 M 514.42 243.00 L 467.65 270.00 M 607.95 189.00 L 654.72 216.00 L 654.72 270.00 L 607.95 297.00 L 561.18 270.00 L 561.18 216.00 Z M 607.95 243.00 L 607.95 189.00 M 607.95 243.00 L 654.72 270.00 M 607.95 243.00 L 561.18 270.00 M -561.18 270.00 L -514.42 297.00 L -514.42 351.00 L -561.18 378.00 L -607.95 351.00 L -607.95 297.00 Z M -561.18 324.00 L -561.18 270.00 M -561.18 324.00 L -514.42 351.00 M -561.18 324.00 L -607.95 351.00 M -467.65 270.00 L -420.89 297.00 L -420.89 351.00 L -467.65 378.00 L -514.42 351.00 L -514.42 297.00 Z M -467.65 324.00 L -467.65 270.00 M -467.65 324.00 L -420.89 351.00 M -467.65 324.00 L -514.42 351.00 M -374.12 270.00 L -327.36 297.00 L -327.36 351.00 L -374.12 378.00 L -420.89 351.00 L -420.89 297.00 Z M -374.12 324.00 L -374.12 270.00 M -374.12 324.00 L -327.36 351.00 M -374.12 324.00 L -420.89 351.00 M -280.59 270.00 L -233.83 297.00 L -233.83 351.00 L -280.59 378.00 L -327.36 351.00 L -327.36 297.00 Z M -280.59 324.00 L -280.59 270.00 M -280.59 324.00 L -233.83 351.00 M -280.59 324.00 L -327.36 351.00 M -187.06 270.00 L -140.30 297.00 L -140.30 351.00 L -187.06 378.00 L -233.83 351.00 L -233.83 297.00 Z M -187.06 324.00 L -187.06 270.00 M -187.06 324.00 L -140.30 351.00 M -187.06 324.00 L -233.83 351.00 M -93.53 270.00 L -46.77 297.00 L -46.77 351.00 L -93.53 378.00 L -140.30 351.00 L -140.30 297.00 Z M -93.53 324.00 L -93.53 270.00 M -93.53 324.00 L -46.77 351.00 M -93.53 324.00 L -140.30 351.00 M 0.00 270.00 L 46.77 297.00 L 46.77 351.00 L 0.00 378.00 L -46.77 351.00 L -46.77 297.00 Z M 0.00 324.00 L 0.00 270.00 M 0.00 324.00 L 46.77 351.00 M 0.00 324.00 L -46.77 351.00 M 93.53 270.00 L 140.30 297.00 L 140.30 351.00 L 93.53 378.00 L 46.77 351.00 L 46.77 297.00 Z M 93.53 324.00 L 93.53 270.00 M 93.53 324.00 L 140.30 351.00 M 93.53 324.00 L 46.77 351.00 M 187.06 270.00 L 233.83 297.00 L 233.83 351.00 L 187.06 378.00 L 140.30 351.00 L 140.30 297.00 Z M 187.06 324.00 L 187.06 270.00 M 187.06 324.00 L 233.83 351.00 M 187.06 324.00 L 140.30 351.00 M 280.59 270.00 L 327.36 297.00 L 327.36 351.00 L 280.59 378.00 L 233.83 351.00 L 233.83 297.00 Z M 280.59 324.00 L 280.59 270.00 M 280.59 324.00 L 327.36 351.00 M 280.59 324.00 L 233.83 351.00 M 374.12 270.00 L 420.89 297.00 L 420.89 351.00 L 374.12 378.00 L 327.36 351.00 L 327.36 297.00 Z M 374.12 324.00 L 374.12 270.00 M 374.12 324.00 L 420.89 351.00 M 374.12 324.00 L 327.36 351.00 M 467.65 270.00 L 514.42 297.00 L 514.42 351.00 L 467.65 378.00 L 420.89 351.00 L 420.89 297.00 Z M 467.65 324.00 L 467.65 270.00 M 467.65 324.00 L 514.42 351.00 M 467.65 324.00 L 420.89 351.00 M 561.18 270.00 L 607.95 297.00 L 607.95 351.00 L 561.18 378.00 L 514.42 351.00 L 514.42 297.00 Z M 561.18 324.00 L 561.18 270.00 M 561.18 324.00 L 607.95 351.00 M 561.18 324.00 L 514.42 351.00" /></g>
<g fill="#EDEFF2">
<circle cx="-561.1844616523163" cy="-378" r="2" />
<circle cx="-514.4190898479566" cy="-351" r="2" />
<circle cx="-514.4190898479566" cy="-297" r="2" />
<circle cx="-561.1844616523163" cy="-270" r="2" />
<circle cx="-607.949833456676" cy="-297" r="2" />
<circle cx="-607.949833456676" cy="-351" r="2" />
<circle cx="-561.1844616523163" cy="-324" r="2" />
<circle cx="-467.6537180435968" cy="-378" r="2" />
<circle cx="-420.88834623923714" cy="-351" r="2" />
<circle cx="-420.88834623923714" cy="-297" r="2" />
<circle cx="-467.6537180435968" cy="-270" r="2" />
<circle cx="-514.4190898479565" cy="-297" r="2" />
<circle cx="-514.4190898479565" cy="-351" r="2" />
<circle cx="-467.6537180435968" cy="-324" r="2" />
<circle cx="-374.12297443487745" cy="-378" r="2" />
<circle cx="-327.35760263051776" cy="-351" r="2" />
<circle cx="-327.35760263051776" cy="-297" r="2" />
<circle cx="-374.12297443487745" cy="-270" r="2" />
<circle cx="-420.88834623923714" cy="-297" r="2" />
<circle cx="-420.88834623923714" cy="-351" r="2" />
<circle cx="-374.12297443487745" cy="-324" r="2" />
<circle cx="-280.59223082615813" cy="-378" r="2" />
<circle cx="-233.82685902179844" cy="-351" r="2" />
<circle cx="-233.82685902179844" cy="-297" r="2" />
<circle cx="-280.59223082615813" cy="-270" r="2" />
<circle cx="-327.3576026305178" cy="-297" r="2" />
<circle cx="-327.3576026305178" cy="-351" r="2" />
<circle cx="-280.59223082615813" cy="-324" r="2" />
<circle cx="-187.06148721743872" cy="-378" r="2" />
<circle cx="-140.29611541307904" cy="-351" r="2" />
<circle cx="-140.29611541307904" cy="-297" r="2" />
<circle cx="-187.06148721743872" cy="-270" r="2" />
<circle cx="-233.8268590217984" cy="-297" r="2" />
<circle cx="-233.8268590217984" cy="-351" r="2" />
<circle cx="-187.06148721743872" cy="-324" r="2" />
<circle cx="-93.53074360871936" cy="-378" r="2" />
<circle cx="-46.76537180435968" cy="-351" r="2" />
<circle cx="-46.76537180435968" cy="-297" r="2" />
<circle cx="-93.53074360871936" cy="-270" r="2" />
<circle cx="-140.29611541307904" cy="-297" r="2" />
<circle cx="-140.29611541307904" cy="-351" r="2" />
<circle cx="-93.53074360871936" cy="-324" r="2" />
<circle cx="0" cy="-378" r="2" />
<circle cx="46.76537180435968" cy="-351" r="2" />
<circle cx="46.76537180435968" cy="-297" r="2" />
<circle cx="0" cy="-270" r="2" />
<circle cx="-46.76537180435968" cy="-297" r="2" />
<circle cx="-46.76537180435968" cy="-351" r="2" />
<circle cx="0" cy="-324" r="2" />
<circle cx="93.53074360871936" cy="-378" r="2" />
<circle cx="140.29611541307904" cy="-351" r="2" />
<circle cx="140.29611541307904" cy="-297" r="2" />
<circle cx="93.53074360871936" cy="-270" r="2" />
<circle cx="46.76537180435968" cy="-297" r="2" />
<circle cx="46.76537180435968" cy="-351" r="2" />
<circle cx="93.53074360871936" cy="-324" r="2" />
<circle cx="187.06148721743872" cy="-378" r="2" />
<circle cx="233.8268590217984" cy="-351" r="2" />
<circle cx="233.8268590217984" cy="-297" r="2" />
<circle cx="187.06148721743872" cy="-270" r="2" />
<circle cx="140.29611541307904" cy="-297" r="2" />
<circle cx="140.29611541307904" cy="-351" r="2" />
<circle cx="187.06148721743872" cy="-324" r="2" />
<circle cx="280.59223082615813" cy="-378" r="2" />
<circle cx="327.3576026305178" cy="-351" r="2" />
<circle cx="327.3576026305178" cy="-297" r="2" />
<circle cx="280.59223082615813" cy="-270" r="2" />
<circle cx="233.82685902179844" cy="-297" r="2" />
<circle cx="233.82685902179844" cy="-351" r="2" />
<circle cx="280.59223082615813" cy="-324" r="2" />
<circle cx="374.12297443487745" cy="-378" r="2" />
<circle cx="420.88834623923714" cy="-351" r="2" />
<circle cx="420.88834623923714" cy="-297" r="2" />
<circle cx="374.12297443487745" cy="-270" r="2" />
<circle cx="327.35760263051776" cy="-297" r="2" />
<circle cx="327.35760263051776" cy="-351" r="2" />
<circle cx="374.12297443487745" cy="-324" r="2" />
<circle cx="467.6537180435968" cy="-378" r="2" />
<circle cx="514.4190898479565" cy="-351" r="2" />
<circle cx="514.4190898479565" cy="-297" r="2" />
<circle cx="467.6537180435968" cy="-270" r="2" />
<circle cx="420.88834623923714" cy="-297" r="2" />
<circle cx="420.88834623923714" cy="-351" r="2" />
<circle cx="467.6537180435968" cy="-324" r="2" />
<circle cx="561.1844616523163" cy="-378" r="2" />
<circle cx="607.949833456676" cy="-351" r="2" />
<circle cx="607.949833456676" cy="-297" r="2" />
<circle cx="561.1844616523163" cy="-270" r="2" />
<circle cx="514.4190898479566" cy="-297" r="2" />
<circle cx="514.4190898479566" cy="-351" r="2" />
<circle cx="561.1844616523163" cy="-324" r="2" />
<circle cx="-514.4190898479566" cy="-297" r="2" />
<circle cx="-467.6537180435969" cy="-270" r="2" />
<circle cx="-467.6537180435969" cy="-216" r="2" />
<circle cx="-514.4190898479566" cy="-189" r="2" />
<circle cx="-561.1844616523163" cy="-216" r="2" />
<circle cx="-561.1844616523163" cy="-270" r="2" />
<circle cx="-514.4190898479566" cy="-243" r="2" />
<circle cx="-420.88834623923714" cy="-297" r="2" />
<circle cx="-374.12297443487745" cy="-270" r="2" />
<circle cx="-374.12297443487745" cy="-216" r="2" />
<circle cx="-420.88834623923714" cy="-189" r="2" />
<circle cx="-467.6537180435968" cy="-216" r="2" />
<circle cx="-467.6537180435968" cy="-270" r="2" />
<circle cx="-420.88834623923714" cy="-243" r="2" />
<circle cx="-327.35760263051776" cy="-297" r="2" />
<circle cx="-280.5922308261581" cy="-270" r="2" />
<circle cx="-280.5922308261581" cy="-216" r="2" />
<circle cx="-327.35760263051776" cy="-189" r="2" />
<circle cx="-374.12297443487745" cy="-216" r="2" />
<circle cx="-374.12297443487745" cy="-270" r="2" />
<circle cx="-327.35760263051776" cy="-243" r="2" />
<circle cx="-233.82685902179844" cy="-297" r="2" />
<circle cx="-187.06148721743875" cy="-270" r="2" />
<circle cx="-187.06148721743875" cy="-216" r="2" />
<circle cx="-233.82685902179844" cy="-189" r="2" />
<circle cx="-280.59223082615813" cy="-216" r="2" />
<circle cx="-280.59223082615813" cy="-270" r="2" />
<circle cx="-233.82685902179844" cy="-243" r="2" />
<circle cx="-140.29611541307904" cy="-297" r="2" />
<circle cx="-93.53074360871935" cy="-270" r="2" />
<circle cx="-93.53074360871935" cy="-216" r="2" />
<circle cx="-140.29611541307904" cy="-189" r="2" />
<circle cx="-187.06148721743872" cy="-216" r="2" />
<circle cx="-187.06148721743872" cy="-270" r="2" />
<circle cx="-140.29611541307904" cy="-243" r="2" />
<circle cx="-46.76537180435968" cy="-297" r="2" />
<circle cx="0" cy="-270" r="2" />
<circle cx="0" cy="-216" r="2" />
<circle cx="-46.76537180435968" cy="-189" r="2" />
<circle cx="-93.53074360871936" cy="-216" r="2" />
<circle cx="-93.53074360871936" cy="-270" r="2" />
<circle cx="-46.76537180435968" cy="-243" r="2" />
<circle cx="46.76537180435968" cy="-297" r="2" />
<circle cx="93.53074360871936" cy="-270" r="2" />
<circle cx="93.53074360871936" cy="-216" r="2" />
<circle cx="46.76537180435968" cy="-189" r="2" />
<circle cx="0" cy="-216" r="2" />
<circle cx="0" cy="-270" r="2" />
<circle cx="46.76537180435968" cy="-243" r="2" />
<circle cx="140.29611541307904" cy="-297" r="2" />
<circle cx="187.06148721743872" cy="-270" r="2" />
<circle cx="187.06148721743872" cy="-216" r="2" />
<circle cx="140.29611541307904" cy="-189" r="2" />
<circle cx="93.53074360871935" cy="-216" r="2" />
<circle cx="93.53074360871935" cy="-270" r="2" />
<circle cx="140.29611541307904" cy="-243" r="2" />
<circle cx="233.8268590217984" cy="-297" r="2" />
<circle cx="280.5922308261581" cy="-270" r="2" />
<circle cx="280.5922308261581" cy="-216" r="2" />
<circle cx="233.8268590217984" cy="-189" r="2" />
<circle cx="187.06148721743872" cy="-216" r="2" />
<circle cx="187.06148721743872" cy="-270" r="2" />
<circle cx="233.8268590217984" cy="-243" r="2" />
<circle cx="327.3576026305178" cy="-297" r="2" />
<circle cx="374.1229744348775" cy="-270" r="2" />
<circle cx="374.1229744348775" cy="-216" r="2" />
<circle cx="327.3576026305178" cy="-189" r="2" />
<circle cx="280.59223082615813" cy="-216" r="2" />
<circle cx="280.59223082615813" cy="-270" r="2" />
<circle cx="327.3576026305178" cy="-243" r="2" />
<circle cx="420.88834623923714" cy="-297" r="2" />
<circle cx="467.6537180435968" cy="-270" r="2" />
<circle cx="467.6537180435968" cy="-216" r="2" />
<circle cx="420.88834623923714" cy="-189" r="2" />
<circle cx="374.12297443487745" cy="-216" r="2" />
<circle cx="374.12297443487745" cy="-270" r="2" />
<circle cx="420.88834623923714" cy="-243" r="2" />
<circle cx="514.4190898479565" cy="-297" r="2" />
<circle cx="561.1844616523161" cy="-270" r="2" />
<circle cx="561.1844616523161" cy="-216" r="2" />
<circle cx="514.4190898479565" cy="-189" r="2" />
<circle cx="467.65371804359677" cy="-216" r="2" />
<circle cx="467.65371804359677" cy="-270" r="2" />
<circle cx="514.4190898479565" cy="-243" r="2" />
<circle cx="607.949833456676" cy="-297" r="2" />
<circle cx="654.7152052610356" cy="-270" r="2" />
<circle cx="654.7152052610356" cy="-216" r="2" />
<circle cx="607.949833456676" cy="-189" r="2" />
<circle cx="561.1844616523163" cy="-216" r="2" />
<circle cx="561.1844616523163" cy="-270" r="2" />
<circle cx="607.949833456676" cy="-243" r="2" />
<circle cx="-561.1844616523163" cy="-216" r="2" />
<circle cx="-514.4190898479566" cy="-189" r="2" />
<circle cx="-514.4190898479566" cy="-135" r="2" />
<circle cx="-561.1844616523163" cy="-108" r="2" />
<circle cx="-607.949833456676" cy="-135" r="2" />
<circle cx="-607.949833456676" cy="-189" r="2" />
<circle cx="-561.1844616523163" cy="-162" r="2" />
<circle cx="-467.6537180435968" cy="-216" r="2" />
<circle cx="-420.88834623923714" cy="-189" r="2" />
<circle cx="-420.88834623923714" cy="-135" r="2" />
<circle cx="-467.6537180435968" cy="-108" r="2" />
<circle cx="-514.4190898479565" cy="-135" r="2" />
<circle cx="-514.4190898479565" cy="-189" r="2" />
<circle cx="-467.6537180435968" cy="-162" r="2" />
<circle cx="-374.12297443487745" cy="-216" r="2" />
<circle cx="-327.35760263051776" cy="-189" r="2" />
<circle cx="-327.35760263051776" cy="-135" r="2" />
<circle cx="-374.12297443487745" cy="-108" r="2" />
<circle cx="-420.88834623923714" cy="-135" r="2" />
<circle cx="-420.88834623923714" cy="-189" r="2" />
<circle cx="-374.12297443487745" cy="-162" r="2" />
<circle cx="-280.59223082615813" cy="-216" r="2" />
<circle cx="-233.82685902179844" cy="-189" r="2" />
<circle cx="-233.82685902179844" cy="-135" r="2" />
<circle cx="-280.59223082615813" cy="-108" r="2" />
<circle cx="-327.3576026305178" cy="-135" r="2" />
<circle cx="-327.3576026305178" cy="-189" r="2" />
<circle cx="-280.59223082615813" cy="-162" r="2" />
<circle cx="0" cy="-216" r="2" />
<circle cx="46.76537180435968" cy="-189" r="2" />
<circle cx="46.76537180435968" cy="-135" r="2" />
<circle cx="0" cy="-108" r="2" />
<circle cx="-46.76537180435968" cy="-135" r="2" />
<circle cx="-46.76537180435968" cy="-189" r="2" />
<circle cx="0" cy="-162" r="2" />
<circle cx="280.59223082615813" cy="-216" r="2" />
<circle cx="327.3576026305178" cy="-189" r="2" />
<circle cx="327.3576026305178" cy="-135" r="2" />
<circle cx="280.59223082615813" cy="-108" r="2" />
<circle cx="233.82685902179844" cy="-135" r="2" />
<circle cx="233.82685902179844" cy="-189" r="2" />
<circle cx="280.59223082615813" cy="-162" r="2" />
<circle cx="374.12297443487745" cy="-216" r="2" />
<circle cx="420.88834623923714" cy="-189" r="2" />
<circle cx="420.88834623923714" cy="-135" r="2" />
<circle cx="374.12297443487745" cy="-108" r="2" />
<circle cx="327.35760263051776" cy="-135" r="2" />
<circle cx="327.35760263051776" cy="-189" r="2" />
<circle cx="374.12297443487745" cy="-162" r="2" />
<circle cx="467.6537180435968" cy="-216" r="2" />
<circle cx="514.4190898479565" cy="-189" r="2" />
<circle cx="514.4190898479565" cy="-135" r="2" />
<circle cx="467.6537180435968" cy="-108" r="2" />
<circle cx="420.88834623923714" cy="-135" r="2" />
<circle cx="420.88834623923714" cy="-189" r="2" />
<circle cx="467.6537180435968" cy="-162" r="2" />
<circle cx="561.1844616523163" cy="-216" r="2" />
<circle cx="607.949833456676" cy="-189" r="2" />
<circle cx="607.949833456676" cy="-135" r="2" />
<circle cx="561.1844616523163" cy="-108" r="2" />
<circle cx="514.4190898479566" cy="-135" r="2" />
<circle cx="514.4190898479566" cy="-189" r="2" />
<circle cx="561.1844616523163" cy="-162" r="2" />
<circle cx="-514.4190898479566" cy="-135" r="2" />
<circle cx="-467.6537180435969" cy="-108" r="2" />
<circle cx="-467.6537180435969" cy="-54" r="2" />
<circle cx="-514.4190898479566" cy="-27" r="2" />
<circle cx="-561.1844616523163" cy="-54" r="2" />
<circle cx="-561.1844616523163" cy="-108" r="2" />
<circle cx="-514.4190898479566" cy="-81" r="2" />
<circle cx="-420.88834623923714" cy="-135" r="2" />
<circle cx="-374.12297443487745" cy="-108" r="2" />
<circle cx="-374.12297443487745" cy="-54" r="2" />
<circle cx="-420.88834623923714" cy="-27" r="2" />
<circle cx="-467.6537180435968" cy="-54" r="2" />
<circle cx="-467.6537180435968" cy="-108" r="2" />
<circle cx="-420.88834623923714" cy="-81" r="2" />
<circle cx="-327.35760263051776" cy="-135" r="2" />
<circle cx="-280.5922308261581" cy="-108" r="2" />
<circle cx="-280.5922308261581" cy="-54" r="2" />
<circle cx="-327.35760263051776" cy="-27" r="2" />
<circle cx="-374.12297443487745" cy="-54" r="2" />
<circle cx="-374.12297443487745" cy="-108" r="2" />
<circle cx="-327.35760263051776" cy="-81" r="2" />
<circle cx="-233.82685902179844" cy="-135" r="2" />
<circle cx="-187.06148721743875" cy="-108" r="2" />
<circle cx="-187.06148721743875" cy="-54" r="2" />
<circle cx="-233.82685902179844" cy="-27" r="2" />
<circle cx="-280.59223082615813" cy="-54" r="2" />
<circle cx="-280.59223082615813" cy="-108" r="2" />
<circle cx="-233.82685902179844" cy="-81" r="2" />
<circle cx="-140.29611541307904" cy="-135" r="2" />
<circle cx="-93.53074360871935" cy="-108" r="2" />
<circle cx="-93.53074360871935" cy="-54" r="2" />
<circle cx="-140.29611541307904" cy="-27" r="2" />
<circle cx="-187.06148721743872" cy="-54" r="2" />
<circle cx="-187.06148721743872" cy="-108" r="2" />
<circle cx="-140.29611541307904" cy="-81" r="2" />
<circle cx="-46.76537180435968" cy="-135" r="2" />
<circle cx="0" cy="-108" r="2" />
<circle cx="0" cy="-54" r="2" />
<circle cx="-46.76537180435968" cy="-27" r="2" />
<circle cx="-93.53074360871936" cy="-54" r="2" />
<circle cx="-93.53074360871936" cy="-108" r="2" />
<circle cx="-46.76537180435968" cy="-81" r="2" />
<circle cx="46.76537180435968" cy="-135" r="2" />
<circle cx="93.53074360871936" cy="-108" r="2" />
<circle cx="93.53074360871936" cy="-54" r="2" />
<circle cx="46.76537180435968" cy="-27" r="2" />
<circle cx="0" cy="-54" r="2" />
<circle cx="0" cy="-108" r="2" />
<circle cx="46.76537180435968" cy="-81" r="2" />
<circle cx="140.29611541307904" cy="-135" r="2" />
<circle cx="187.06148721743872" cy="-108" r="2" />
<circle cx="187.06148721743872" cy="-54" r="2" />
<circle cx="140.29611541307904" cy="-27" r="2" />
<circle cx="93.53074360871935" cy="-54" r="2" />
<circle cx="93.53074360871935" cy="-108" r="2" />
<circle cx="140.29611541307904" cy="-81" r="2" />
<circle cx="233.8268590217984" cy="-135" r="2" />
<circle cx="280.5922308261581" cy="-108" r="2" />
<circle cx="280.5922308261581" cy="-54" r="2" />
<circle cx="233.8268590217984" cy="-27" r="2" />
<circle cx="187.06148721743872" cy="-54" r="2" />
<circle cx="187.06148721743872" cy="-108" r="2" />
<circle cx="233.8268590217984" cy="-81" r="2" />
<circle cx="327.3576026305178" cy="-135" r="2" />
<circle cx="374.1229744348775" cy="-108" r="2" />
<circle cx="374.1229744348775" cy="-54" r="2" />
<circle cx="327.3576026305178" cy="-27" r="2" />
<circle cx="280.59223082615813" cy="-54" r="2" />
<circle cx="280.59223082615813" cy="-108" r="2" />
<circle cx="327.3576026305178" cy="-81" r="2" />
<circle cx="420.88834623923714" cy="-135" r="2" />
<circle cx="467.6537180435968" cy="-108" r="2" />
<circle cx="467.6537180435968" cy="-54" r="2" />
<circle cx="420.88834623923714" cy="-27" r="2" />
<circle cx="374.12297443487745" cy="-54" r="2" />
<circle cx="374.12297443487745" cy="-108" r="2" />
<circle cx="420.88834623923714" cy="-81" r="2" />
<circle cx="514.4190898479565" cy="-135" r="2" />
<circle cx="561.1844616523161" cy="-108" r="2" />
<circle cx="561.1844616523161" cy="-54" r="2" />
<circle cx="514.4190898479565" cy="-27" r="2" />
<circle cx="467.65371804359677" cy="-54" r="2" />
<circle cx="467.65371804359677" cy="-108" r="2" />
<circle cx="514.4190898479565" cy="-81" r="2" />
<circle cx="607.949833456676" cy="-135" r="2" />
<circle cx="654.7152052610356" cy="-108" r="2" />
<circle cx="654.7152052610356" cy="-54" r="2" />
<circle cx="607.949833456676" cy="-27" r="2" />
<circle cx="561.1844616523163" cy="-54" r="2" />
<circle cx="561.1844616523163" cy="-108" r="2" />
<circle cx="607.949833456676" cy="-81" r="2" />
<circle cx="-561.1844616523163" cy="-54" r="2" />
<circle cx="-514.4190898479566" cy="-27" r="2" />
<circle cx="-514.4190898479566" cy="27" r="2" />
<circle cx="-561.1844616523163" cy="54" r="2" />
<circle cx="-607.949833456676" cy="27" r="2" />
<circle cx="-607.949833456676" cy="-27" r="2" />
<circle cx="-561.1844616523163" cy="0" r="2" />
<circle cx="-467.6537180435968" cy="-54" r="2" />
<circle cx="-420.88834623923714" cy="-27" r="2" />
<circle cx="-420.88834623923714" cy="27" r="2" />
<circle cx="-467.6537180435968" cy="54" r="2" />
<circle cx="-514.4190898479565" cy="27" r="2" />
<circle cx="-514.4190898479565" cy="-27" r="2" />
<circle cx="-467.6537180435968" cy="0" r="2" />
<circle cx="-374.12297443487745" cy="-54" r="2" />
<circle cx="-327.35760263051776" cy="-27" r="2" />
<circle cx="-327.35760263051776" cy="27" r="2" />
<circle cx="-374.12297443487745" cy="54" r="2" />
<circle cx="-420.88834623923714" cy="27" r="2" />
<circle cx="-420.88834623923714" cy="-27" r="2" />
<circle cx="-374.12297443487745" cy="0" r="2" />
<circle cx="-93.53074360871936" cy="-54" r="2" />
<circle cx="-46.76537180435968" cy="-27" r="2" />
<circle cx="-46.76537180435968" cy="27" r="2" />
<circle cx="-93.53074360871936" cy="54" r="2" />
<circle cx="-140.29611541307904" cy="27" r="2" />
<circle cx="-140.29611541307904" cy="-27" r="2" />
<circle cx="-93.53074360871936" cy="0" r="2" />
<circle cx="93.53074360871936" cy="-54" r="2" />
<circle cx="140.29611541307904" cy="-27" r="2" />
<circle cx="140.29611541307904" cy="27" r="2" />
<circle cx="93.53074360871936" cy="54" r="2" />
<circle cx="46.76537180435968" cy="27" r="2" />
<circle cx="46.76537180435968" cy="-27" r="2" />
<circle cx="93.53074360871936" cy="0" r="2" />
<circle cx="374.12297443487745" cy="-54" r="2" />
<circle cx="420.88834623923714" cy="-27" r="2" />
<circle cx="420.88834623923714" cy="27" r="2" />
<circle cx="374.12297443487745" cy="54" r="2" />
<circle cx="327.35760263051776" cy="27" r="2" />
<circle cx="327.35760263051776" cy="-27" r="2" />
<circle cx="374.12297443487745" cy="0" r="2" />
<circle cx="467.6537180435968" cy="-54" r="2" />
<circle cx="514.4190898479565" cy="-27" r="2" />
<circle cx="514.4190898479565" cy="27" r="2" />
<circle cx="467.6537180435968" cy="54" r="2" />
<circle cx="420.88834623923714" cy="27" r="2" />
<circle cx="420.88834623923714" cy="-27" r="2" />
<circle cx="467.6537180435968" cy="0" r="2" />
<circle cx="561.1844616523163" cy="-54" r="2" />
<circle cx="607.949833456676" cy="-27" r="2" />
<circle cx="607.949833456676" cy="27" r="2" />
<circle cx="561.1844616523163" cy="54" r="2" />
<circle cx="514.4190898479566" cy="27" r="2" />
<circle cx="514.4190898479566" cy="-27" r="2" />
<circle cx="561.1844616523163" cy="0" r="2" />
<circle cx="-514.4190898479566" cy="27" r="2" />
<circle cx="-467.6537180435969" cy="54" r="2" />
<circle cx="-467.6537180435969" cy="108" r="2" />
<circle cx="-514.4190898479566" cy="135" r="2" />
<circle cx="-561.1844616523163" cy="108" r="2" />
<circle cx="-561.1844616523163" cy="54" r="2" />
<circle cx="-514.4190898479566" cy="81" r="2" />
<circle cx="-420.88834623923714" cy="27" r="2" />
<circle cx="-374.12297443487745" cy="54" r="2" />
<circle cx="-374.12297443487745" cy="108" r="2" />
<circle cx="-420.88834623923714" cy="135" r="2" />
<circle cx="-467.6537180435968" cy="108" r="2" />
<circle cx="-467.6537180435968" cy="54" r="2" />
<circle cx="-420.88834623923714" cy="81" r="2" />
<circle cx="-327.35760263051776" cy="27" r="2" />
<circle cx="-280.5922308261581" cy="54" r="2" />
<circle cx="-280.5922308261581" cy="108" r="2" />
<circle cx="-327.35760263051776" cy="135" r="2" />
<circle cx="-374.12297443487745" cy="108" r="2" />
<circle cx="-374.12297443487745" cy="54" r="2" />
<circle cx="-327.35760263051776" cy="81" r="2" />
<circle cx="-233.82685902179844" cy="27" r="2" />
<circle cx="-187.06148721743875" cy="54" r="2" />
<circle cx="-187.06148721743875" cy="108" r="2" />
<circle cx="-233.82685902179844" cy="135" r="2" />
<circle cx="-280.59223082615813" cy="108" r="2" />
<circle cx="-280.59223082615813" cy="54" r="2" />
<circle cx="-233.82685902179844" cy="81" r="2" />
<circle cx="-140.29611541307904" cy="27" r="2" />
<circle cx="-93.53074360871935" cy="54" r="2" />
<circle cx="-93.53074360871935" cy="108" r="2" />
<circle cx="-140.29611541307904" cy="135" r="2" />
<circle cx="-187.06148721743872" cy="108" r="2" />
<circle cx="-187.06148721743872" cy="54" r="2" />
<circle cx="-140.29611541307904" cy="81" r="2" />
<circle cx="-46.76537180435968" cy="27" r="2" />
<circle cx="0" cy="54" r="2" />
<circle cx="0" cy="108" r="2" />
<circle cx="-46.76537180435968" cy="135" r="2" />
<circle cx="-93.53074360871936" cy="108" r="2" />
<circle cx="-93.53074360871936" cy="54" r="2" />
<circle cx="-46.76537180435968" cy="81" r="2" />
<circle cx="46.76537180435968" cy="27" r="2" />
<circle cx="93.53074360871936" cy="54" r="2" />
<circle cx="93.53074360871936" cy="108" r="2" />
<circle cx="46.76537180435968" cy="135" r="2" />
<circle cx="0" cy="108" r="2" />
<circle cx="0" cy="54" r="2" />
<circle cx="46.76537180435968" cy="81" r="2" />
<circle cx="140.29611541307904" cy="27" r="2" />
<circle cx="187.06148721743872" cy="54" r="2" />
<circle cx="187.06148721743872" cy="108" r="2" />
<circle cx="140.29611541307904" cy="135" r="2" />
<circle cx="93.53074360871935" cy="108" r="2" />
<circle cx="93.53074360871935" cy="54" r="2" />
<circle cx="140.29611541307904" cy="81" r="2" />
<circle cx="233.8268590217984" cy="27" r="2" />
<circle cx="280.5922308261581" cy="54" r="2" />
<circle cx="280.5922308261581" cy="108" r="2" />
<circle cx="233.8268590217984" cy="135" r="2" />
<circle cx="187.06148721743872" cy="108" r="2" />
<circle cx="187.06148721743872" cy="54" r="2" />
<circle cx="233.8268590217984" cy="81" r="2" />
<circle cx="327.3576026305178" cy="27" r="2" />
<circle cx="374.1229744348775" cy="54" r="2" />
<circle cx="374.1229744348775" cy="108" r="2" />
<circle cx="327.3576026305178" cy="135" r="2" />
<circle cx="280.59223082615813" cy="108" r="2" />
<circle cx="280.59223082615813" cy="54" r="2" />
<circle cx="327.3576026305178" cy="81" r="2" />
<circle cx="420.88834623923714" cy="27" r="2" />
<circle cx="467.6537180435968" cy="54" r="2" />
<circle cx="467.6537180435968" cy="108" r="2" />
<circle cx="420.88834623923714" cy="135" r="2" />
<circle cx="374.12297443487745" cy="108" r="2" />
<circle cx="374.12297443487745" cy="54" r="2" />
<circle cx="420.88834623923714" cy="81" r="2" />
<circle cx="514.4190898479565" cy="27" r="2" />
<circle cx="561.1844616523161" cy="54" r="2" />
<circle cx="561.1844616523161" cy="108" r="2" />
<circle cx="514.4190898479565" cy="135" r="2" />
<circle cx="467.65371804359677" cy="108" r="2" />
<circle cx="467.65371804359677" cy="54" r="2" />
<circle cx="514.4190898479565" cy="81" r="2" />
<circle cx="607.949833456676" cy="27" r="2" />
<circle cx="654.7152052610356" cy="54" r="2" />
<circle cx="654.7152052610356" cy="108" r="2" />
<circle cx="607.949833456676" cy="135" r="2" />
<circle cx="561.1844616523163" cy="108" r="2" />
<circle cx="561.1844616523163" cy="54" r="2" />
<circle cx="607.949833456676" cy="81" r="2" />
<circle cx="-561.1844616523163" cy="108" r="2" />
<circle cx="-514.4190898479566" cy="135" r="2" />
<circle cx="-514.4190898479566" cy="189" r="2" />
<circle cx="-561.1844616523163" cy="216" r="2" />
<circle cx="-607.949833456676" cy="189" r="2" />
<circle cx="-607.949833456676" cy="135" r="2" />
<circle cx="-561.1844616523163" cy="162" r="2" />
<circle cx="-467.6537180435968" cy="108" r="2" />
<circle cx="-420.88834623923714" cy="135" r="2" />
<circle cx="-420.88834623923714" cy="189" r="2" />
<circle cx="-467.6537180435968" cy="216" r="2" />
<circle cx="-514.4190898479565" cy="189" r="2" />
<circle cx="-514.4190898479565" cy="135" r="2" />
<circle cx="-467.6537180435968" cy="162" r="2" />
<circle cx="-374.12297443487745" cy="108" r="2" />
<circle cx="-327.35760263051776" cy="135" r="2" />
<circle cx="-327.35760263051776" cy="189" r="2" />
<circle cx="-374.12297443487745" cy="216" r="2" />
<circle cx="-420.88834623923714" cy="189" r="2" />
<circle cx="-420.88834623923714" cy="135" r="2" />
<circle cx="-374.12297443487745" cy="162" r="2" />
<circle cx="-280.59223082615813" cy="108" r="2" />
<circle cx="-233.82685902179844" cy="135" r="2" />
<circle cx="-233.82685902179844" cy="189" r="2" />
<circle cx="-280.59223082615813" cy="216" r="2" />
<circle cx="-327.3576026305178" cy="189" r="2" />
<circle cx="-327.3576026305178" cy="135" r="2" />
<circle cx="-280.59223082615813" cy="162" r="2" />
<circle cx="-187.06148721743872" cy="108" r="2" />
<circle cx="-140.29611541307904" cy="135" r="2" />
<circle cx="-140.29611541307904" cy="189" r="2" />
<circle cx="-187.06148721743872" cy="216" r="2" />
<circle cx="-233.8268590217984" cy="189" r="2" />
<circle cx="-233.8268590217984" cy="135" r="2" />
<circle cx="-187.06148721743872" cy="162" r="2" />
<circle cx="187.06148721743872" cy="108" r="2" />
<circle cx="233.8268590217984" cy="135" r="2" />
<circle cx="233.8268590217984" cy="189" r="2" />
<circle cx="187.06148721743872" cy="216" r="2" />
<circle cx="140.29611541307904" cy="189" r="2" />
<circle cx="140.29611541307904" cy="135" r="2" />
<circle cx="187.06148721743872" cy="162" r="2" />
<circle cx="280.59223082615813" cy="108" r="2" />
<circle cx="327.3576026305178" cy="135" r="2" />
<circle cx="327.3576026305178" cy="189" r="2" />
<circle cx="280.59223082615813" cy="216" r="2" />
<circle cx="233.82685902179844" cy="189" r="2" />
<circle cx="233.82685902179844" cy="135" r="2" />
<circle cx="280.59223082615813" cy="162" r="2" />
<circle cx="374.12297443487745" cy="108" r="2" />
<circle cx="420.88834623923714" cy="135" r="2" />
<circle cx="420.88834623923714" cy="189" r="2" />
<circle cx="374.12297443487745" cy="216" r="2" />
<circle cx="327.35760263051776" cy="189" r="2" />
<circle cx="327.35760263051776" cy="135" r="2" />
<circle cx="374.12297443487745" cy="162" r="2" />
<circle cx="467.6537180435968" cy="108" r="2" />
<circle cx="514.4190898479565" cy="135" r="2" />
<circle cx="514.4190898479565" cy="189" r="2" />
<circle cx="467.6537180435968" cy="216" r="2" />
<circle cx="420.88834623923714" cy="189" r="2" />
<circle cx="420.88834623923714" cy="135" r="2" />
<circle cx="467.6537180435968" cy="162" r="2" />
<circle cx="561.1844616523163" cy="108" r="2" />
<circle cx="607.949833456676" cy="135" r="2" />
<circle cx="607.949833456676" cy="189" r="2" />
<circle cx="561.1844616523163" cy="216" r="2" />
<circle cx="514.4190898479566" cy="189" r="2" />
<circle cx="514.4190898479566" cy="135" r="2" />
<circle cx="561.1844616523163" cy="162" r="2" />
<circle cx="-514.4190898479566" cy="189" r="2" />
<circle cx="-467.6537180435969" cy="216" r="2" />
<circle cx="-467.6537180435969" cy="270" r="2" />
<circle cx="-514.4190898479566" cy="297" r="2" />
<circle cx="-561.1844616523163" cy="270" r="2" />
<circle cx="-561.1844616523163" cy="216" r="2" />
<circle cx="-514.4190898479566" cy="243" r="2" />
<circle cx="-420.88834623923714" cy="189" r="2" />
<circle cx="-374.12297443487745" cy="216" r="2" />
<circle cx="-374.12297443487745" cy="270" r="2" />
<circle cx="-420.88834623923714" cy="297" r="2" />
<circle cx="-467.6537180435968" cy="270" r="2" />
<circle cx="-467.6537180435968" cy="216" r="2" />
<circle cx="-420.88834623923714" cy="243" r="2" />
<circle cx="-327.35760263051776" cy="189" r="2" />
<circle cx="-280.5922308261581" cy="216" r="2" />
<circle cx="-280.5922308261581" cy="270" r="2" />
<circle cx="-327.35760263051776" cy="297" r="2" />
<circle cx="-374.12297443487745" cy="270" r="2" />
<circle cx="-374.12297443487745" cy="216" r="2" />
<circle cx="-327.35760263051776" cy="243" r="2" />
<circle cx="-233.82685902179844" cy="189" r="2" />
<circle cx="-187.06148721743875" cy="216" r="2" />
<circle cx="-187.06148721743875" cy="270" r="2" />
<circle cx="-233.82685902179844" cy="297" r="2" />
<circle cx="-280.59223082615813" cy="270" r="2" />
<circle cx="-280.59223082615813" cy="216" r="2" />
<circle cx="-233.82685902179844" cy="243" r="2" />
<circle cx="-140.29611541307904" cy="189" r="2" />
<circle cx="-93.53074360871935" cy="216" r="2" />
<circle cx="-93.53074360871935" cy="270" r="2" />
<circle cx="-140.29611541307904" cy="297" r="2" />
<circle cx="-187.06148721743872" cy="270" r="2" />
<circle cx="-187.06148721743872" cy="216" r="2" />
<circle cx="-140.29611541307904" cy="243" r="2" />
<circle cx="-46.76537180435968" cy="189" r="2" />
<circle cx="0" cy="216" r="2" />
<circle cx="0" cy="270" r="2" />
<circle cx="-46.76537180435968" cy="297" r="2" />
<circle cx="-93.53074360871936" cy="270" r="2" />
<circle cx="-93.53074360871936" cy="216" r="2" />
<circle cx="-46.76537180435968" cy="243" r="2" />
<circle cx="46.76537180435968" cy="189" r="2" />
<circle cx="93.53074360871936" cy="216" r="2" />
<circle cx="93.53074360871936" cy="270" r="2" />
<circle cx="46.76537180435968" cy="297" r="2" />
<circle cx="0" cy="270" r="2" />
<circle cx="0" cy="216" r="2" />
<circle cx="46.76537180435968" cy="243" r="2" />
<circle cx="140.29611541307904" cy="189" r="2" />
<circle cx="187.06148721743872" cy="216" r="2" />
<circle cx="187.06148721743872" cy="270" r="2" />
<circle cx="140.29611541307904" cy="297" r="2" />
<circle cx="93.53074360871935" cy="270" r="2" />
<circle cx="93.53074360871935" cy="216" r="2" />
<circle cx="140.29611541307904" cy="243" r="2" />
<circle cx="233.8268590217984" cy="189" r="2" />
<circle cx="280.5922308261581" cy="216" r="2" />
<circle cx="280.5922308261581" cy="270" r="2" />
<circle cx="233.8268590217984" cy="297" r="2" />
<circle cx="187.06148721743872" cy="270" r="2" />
<circle cx="187.06148721743872" cy="216" r="2" />
<circle cx="233.8268590217984" cy="243" r="2" />
<circle cx="327.3576026305178" cy="189" r="2" />
<circle cx="374.1229744348775" cy="216" r="2" />
<circle cx="374.1229744348775" cy="270" r="2" />
<circle cx="327.3576026305178" cy="297" r="2" />
<circle cx="280.59223082615813" cy="270" r="2" />
<circle cx="280.59223082615813" cy="216" r="2" />
<circle cx="327.3576026305178" cy="243" r="2" />
<circle cx="420.88834623923714" cy="189" r="2" />
<circle cx="467.6537180435968" cy="216" r="2" />
<circle cx="467.6537180435968" cy="270" r="2" />
<circle cx="420.88834623923714" cy="297" r="2" />
<circle cx="374.12297443487745" cy="270" r="2" />
<circle cx="374.12297443487745" cy="216" r="2" />
<circle cx="420.88834623923714" cy="243" r="2" />
<circle cx="514.4190898479565" cy="189" r="2" />
<circle cx="561.1844616523161" cy="216" r="2" />
<circle cx="561.1844616523161" cy="270" r="2" />
<circle cx="514.4190898479565" cy="297" r="2" />
<circle cx="467.65371804359677" cy="270" r="2" />
<circle cx="467.65371804359677" cy="216" r="2" />
<circle cx="514.4190898479565" cy="243" r="2" />
<circle cx="607.949833456676" cy="189" r="2" />
<circle cx="654.7152052610356" cy="216" r="2" />
<circle cx="654.7152052610356" cy="270" r="2" />
<circle cx="607.949833456676" cy="297" r="2" />
<circle cx="561.1844616523163" cy="270" r="2" />
<circle cx="561.1844616523163" cy="216" r="2" />
<circle cx="607.949833456676" cy="243" r="2" />
<circle cx="-561.1844616523163" cy="270" r="2" />
<circle cx="-514.4190898479566" cy="297" r="2" />
<circle cx="-514.4190898479566" cy="351" r="2" />
<circle cx="-561.1844616523163" cy="378" r="2" />
<circle cx="-607.949833456676" cy="351" r="2" />
<circle cx="-607.949833456676" cy="297" r="2" />
<circle cx="-561.1844616523163" cy="324" r="2" />
<circle cx="-467.6537180435968" cy="270" r="2" />
<circle cx="-420.88834623923714" cy="297" r="2" />
<circle cx="-420.88834623923714" cy="351" r="2" />
<circle cx="-467.6537180435968" cy="378" r="2" />
<circle cx="-514.4190898479565" cy="351" r="2" />
<circle cx="-514.4190898479565" cy="297" r="2" />
<circle cx="-467.6537180435968" cy="324" r="2" />
<circle cx="-374.12297443487745" cy="270" r="2" />
<circle cx="-327.35760263051776" cy="297" r="2" />
<circle cx="-327.35760263051776" cy="351" r="2" />
<circle cx="-374.12297443487745" cy="378" r="2" />
<circle cx="-420.88834623923714" cy="351" r="2" />
<circle cx="-420.88834623923714" cy="297" r="2" />
<circle cx="-374.12297443487745" cy="324" r="2" />
<circle cx="-280.59223082615813" cy="270" r="2" />
<circle cx="-233.82685902179844" cy="297" r="2" />
<circle cx="-233.82685902179844" cy="351" r="2" />
<circle cx="-280.59223082615813" cy="378" r="2" />
<circle cx="-327.3576026305178" cy="351" r="2" />
<circle cx="-327.3576026305178" cy="297" r="2" />
<circle cx="-280.59223082615813" cy="324" r="2" />
<circle cx="-187.06148721743872" cy="270" r="2" />
<circle cx="-140.29611541307904" cy="297" r="2" />
<circle cx="-140.29611541307904" cy="351" r="2" />
<circle cx="-187.06148721743872" cy="378" r="2" />
<circle cx="-233.8268590217984" cy="351" r="2" />
<circle cx="-233.8268590217984" cy="297" r="2" />
<circle cx="-187.06148721743872" cy="324" r="2" />
<circle cx="-93.53074360871936" cy="270" r="2" />
<circle cx="-46.76537180435968" cy="297" r="2" />
<circle cx="-46.76537180435968" cy="351" r="2" />
<circle cx="-93.53074360871936" cy="378" r="2" />
<circle cx="-140.29611541307904" cy="351" r="2" />
<circle cx="-140.29611541307904" cy="297" r="2" />
<circle cx="-93.53074360871936" cy="324" r="2" />
<circle cx="0" cy="270" r="2" />
<circle cx="46.76537180435968" cy="297" r="2" />
<circle cx="46.76537180435968" cy="351" r="2" />
<circle cx="0" cy="378" r="2" />
<circle cx="-46.76537180435968" cy="351" r="2" />
<circle cx="-46.76537180435968" cy="297" r="2" />
<circle cx="0" cy="324" r="2" />
<circle cx="93.53074360871936" cy="270" r="2" />
<circle cx="140.29611541307904" cy="297" r="2" />
<circle cx="140.29611541307904" cy="351" r="2" />
<circle cx="93.53074360871936" cy="378" r="2" />
<circle cx="46.76537180435968" cy="351" r="2" />
<circle cx="46.76537180435968" cy="297" r="2" />
<circle cx="93.53074360871936" cy="324" r="2" />
<circle cx="187.06148721743872" cy="270" r="2" />
<circle cx="233.8268590217984" cy="297" r="2" />
<circle cx="233.8268590217984" cy="351" r="2" />
<circle cx="187.06148721743872" cy="378" r="2" />
<circle cx="140.29611541307904" cy="351" r="2" />
<circle cx="140.29611541307904" cy="297" r="2" />
<circle cx="187.06148721743872" cy="324" r="2" />
<circle cx="280.59223082615813" cy="270" r="2" />
<circle cx="327.3576026305178" cy="297" r="2" />
<circle cx="327.3576026305178" cy="351" r="2" />
<circle cx="280.59223082615813" cy="378" r="2" />
<circle cx="233.82685902179844" cy="351" r="2" />
<circle cx="233.82685902179844" cy="297" r="2" />
<circle cx="280.59223082615813" cy="324" r="2" />
<circle cx="374.12297443487745" cy="270" r="2" />
<circle cx="420.88834623923714" cy="297" r="2" />
<circle cx="420.88834623923714" cy="351" r="2" />
<circle cx="374.12297443487745" cy="378" r="2" />
<circle cx="327.35760263051776" cy="351" r="2" />
<circle cx="327.35760263051776" cy="297" r="2" />
<circle cx="374.12297443487745" cy="324" r="2" />
<circle cx="467.6537180435968" cy="270" r="2" />
<circle cx="514.4190898479565" cy="297" r="2" />
<circle cx="514.4190898479565" cy="351" r="2" />
<circle cx="467.6537180435968" cy="378" r="2" />
<circle cx="420.88834623923714" cy="351" r="2" />
<circle cx="420.88834623923714" cy="297" r="2" />
<circle cx="467.6537180435968" cy="324" r="2" />
<circle cx="561.1844616523163" cy="270" r="2" />
<circle cx="607.949833456676" cy="297" r="2" />
<circle cx="607.949833456676" cy="351" r="2" />
<circle cx="561.1844616523163" cy="378" r="2" />
<circle cx="514.4190898479566" cy="351" r="2" />
<circle cx="514.4190898479566" cy="297" r="2" />
<circle cx="561.1844616523163" cy="324" r="2" />
</g>
<image href="logos/inference-endpoints.svg" xlink:href="logos/inference-endpoints.svg" x="-35" y="-35" width="70" height="70" preserveAspectRatio="xMidYMid meet" />
<image href="logos/engine-3.svg" xlink:href="logos/engine-3.svg" x="-179.89611541307903" y="-179" width="30" height="30" preserveAspectRatio="xMidYMid meet" />
<text x="-143.89611541307903" y="-162" font-family="'IBM Plex Mono', monospace" font-weight="400" font-size="24" fill="#1F2937" dominant-baseline="middle" text-anchor="start">SGL</text>
<image href="logos/engine-2.svg" xlink:href="logos/engine-2.svg" x="93.49611541307904" y="-179" width="30" height="30" preserveAspectRatio="xMidYMid meet" />
<text x="129.49611541307905" y="-162" font-family="'IBM Plex Mono', monospace" font-weight="400" font-size="24" fill="#1F2937" dominant-baseline="middle" text-anchor="start">vLLM</text>
<image href="logos/engine-4.svg" xlink:href="logos/engine-4.svg" x="-287.82685902179844" y="-17" width="30" height="30" preserveAspectRatio="xMidYMid meet" />
<text x="-251.82685902179844" y="0" font-family="'IBM Plex Mono', monospace" font-weight="400" font-size="24" fill="#1F2937" dominant-baseline="middle" text-anchor="start">LLaMA</text>
<image href="logos/engine-5.svg" xlink:href="logos/engine-5.svg" x="194.22685902179845" y="-17" width="30" height="30" preserveAspectRatio="xMidYMid meet" />
<text x="230.22685902179845" y="0" font-family="'IBM Plex Mono', monospace" font-weight="400" font-size="24" fill="#1F2937" dominant-baseline="middle" text-anchor="start">TEI</text>
<image href="logos/engine-1.svg" xlink:href="logos/engine-1.svg" x="-104.39999999999999" y="145" width="30" height="30" preserveAspectRatio="xMidYMid meet" />
<text x="-68.39999999999999" y="162" font-family="'IBM Plex Mono', monospace" font-weight="400" font-size="24" fill="#1F2937" dominant-baseline="middle" text-anchor="start">Transformers</text>
<path d="M -46.765,-135.000 L -46.765,-81.000 L 0.000,-54.000" stroke="#FF2A4A" stroke-opacity="0.6" stroke-width="1.6" fill="none" stroke-linecap="round" stroke-linejoin="round" stroke-dasharray="39.00,99999" stroke-dashoffset="0" />
<path d="M -93.531,-108.000 L -93.531,-54.000 L -46.765,-27.000" stroke="#FF2A4A" stroke-opacity="0.6" stroke-width="1.6" fill="none" stroke-linecap="round" stroke-linejoin="round" stroke-dasharray="39.00,99999" stroke-dashoffset="0" />
<path d="M 46.765,-135.000 L 46.765,-81.000 L 0.000,-54.000" stroke="#FF2A4A" stroke-opacity="0.6" stroke-width="1.6" fill="none" stroke-linecap="round" stroke-linejoin="round" stroke-dasharray="39.00,99999" stroke-dashoffset="0" />
<path d="M 93.531,-108.000 L 93.531,-54.000 L 46.765,-27.000" stroke="#FF2A4A" stroke-opacity="0.6" stroke-width="1.6" fill="none" stroke-linecap="round" stroke-linejoin="round" stroke-dasharray="39.00,99999" stroke-dashoffset="0" />
<path d="M -140.296,-27.000 L -93.531,-54.000 L -46.765,-27.000" stroke="#FF2A4A" stroke-opacity="0.6" stroke-width="1.6" fill="none" stroke-linecap="round" stroke-linejoin="round" stroke-dasharray="39.00,99999" stroke-dashoffset="0" />
<path d="M -140.296,27.000 L -93.531,0.000 L -46.765,27.000" stroke="#FF2A4A" stroke-opacity="0.6" stroke-width="1.6" fill="none" stroke-linecap="round" stroke-linejoin="round" stroke-dasharray="39.00,99999" stroke-dashoffset="0" />
<path d="M 140.296,-27.000 L 93.531,-54.000 L 46.765,-27.000" stroke="#FF2A4A" stroke-opacity="0.6" stroke-width="1.6" fill="none" stroke-linecap="round" stroke-linejoin="round" stroke-dasharray="39.00,99999" stroke-dashoffset="0" />
<path d="M 140.296,27.000 L 93.531,0.000 L 46.765,27.000" stroke="#FF2A4A" stroke-opacity="0.6" stroke-width="1.6" fill="none" stroke-linecap="round" stroke-linejoin="round" stroke-dasharray="39.00,99999" stroke-dashoffset="0" />
<path d="M -93.531,108.000 L -46.765,81.000 L -46.765,27.000" stroke="#FF2A4A" stroke-opacity="0.6" stroke-width="1.6" fill="none" stroke-linecap="round" stroke-linejoin="round" stroke-dasharray="39.00,99999" stroke-dashoffset="0" />
<path d="M 0.000,108.000 L 0.000,54.000" stroke="#FF2A4A" stroke-opacity="0.6" stroke-width="1.6" fill="none" stroke-linecap="round" stroke-linejoin="round" stroke-dasharray="32.40,99999" stroke-dashoffset="0" />
<path d="M 93.531,108.000 L 46.765,81.000 L 46.765,27.000" stroke="#FF2A4A" stroke-opacity="0.6" stroke-width="1.6" fill="none" stroke-linecap="round" stroke-linejoin="round" stroke-dasharray="39.00,99999" stroke-dashoffset="0" />
<rect x="-400" y="-220" width="800" height="50" fill="url(#ep-fade-t)" />
<rect x="-400" y="170" width="800" height="50" fill="url(#ep-fade-b)" />
<rect x="-400" y="-220" width="100" height="440" fill="url(#ep-fade-l)" />
<rect x="300" y="-220" width="100" height="440" fill="url(#ep-fade-r)" />
</svg>