<svg xmlns="http://www.w3.org/2000/svg" width="12" height="12" fill="none" viewBox="0 0 12 12"><path fill="#faff00" fill-rule="evenodd" d="M8.034 3.18h.016a.72.72 0 0 1 .58.293l1.6 2.142a.35.35 0 0 1 0 .42l-1.6 2.142a.73.73 0 0 1-.58.292h-.017a.73.73 0 0 1-.58-.292l-1.6-2.142a.35.35 0 0 1 0-.42l1.598-2.142a.73.73 0 0 1 .581-.292z" clip-rule="evenodd"/><path fill="#6bffe4" fill-rule="evenodd" d="M6.445 8.47H3.95a.73.73 0 0 1-.58-.293l-1.39-1.86h2.916q.065.16.17.305z" clip-rule="evenodd"/><path fill="#41c78f" fill-rule="evenodd" d="m3.37 3.473-1.39 1.86h2.916q.065-.16.17-.305L6.444 3.18H3.95a.73.73 0 0 0-.58.292" clip-rule="evenodd"/><path fill="#000" fill-rule="evenodd" d="M2.582 8.764c.322.432.83.687 1.368.687h4.1c.54 0 1.046-.255 1.368-.687l1.598-2.142a1.33 1.33 0 0 0 0-1.594L9.418 2.885A1.7 1.7 0 0 0 8.05 2.2h-4.1c-.539 0-1.046.255-1.368.686L.984 5.028a1.33 1.33 0 0 0 0 1.594zM3.95 8.47h2.495L5.068 6.622a1.3 1.3 0 0 1-.17-.306H1.98l1.39 1.861a.73.73 0 0 0 .581.292zM1.98 5.334l1.39-1.86a.73.73 0 0 1 .58-.293h2.495L5.068 5.028q-.105.142-.17.306zm6.07-2.153h-.016a.73.73 0 0 0-.58.292l-1.6 2.142a.35.35 0 0 0 0 .42l1.598 2.142a.73.73 0 0 0 .581.292h.016a.73.73 0 0 0 .58-.292l1.6-2.142a.35.35 0 0 0 0-.42L8.63 3.473a.73.73 0 0 0-.58-.292" clip-rule="evenodd"/></svg>