<svg xmlns="http://www.w3.org/2000/svg" width="25" height="25" fill="none" viewBox="0 0 25 25"><path fill="#fd8135" d="M5.988 11.024c1.864-1.784 4.05-2.673 6.592-2.58 1.7.063 3.282.56 4.722 1.627l-1.497 2.586c-.665-.314-1.272-.689-1.931-.898-4.384-1.39-7.55 2.252-7.12 6.029.238 2.09 1.724 3.387 3.839 3.456 1.103.036 2.129-.258 3.122-.703.3-.134.594-.28.949-.447.224.877.444 1.695.631 2.52.026.114-.075.334-.178.389-2.574 1.367-5.245 1.796-7.968.531-2.866-1.33-4.067-4.164-3.725-7.15.237-2.062 1.098-3.836 2.564-5.36"/><path fill="#fc8135" d="M9.893.723c.447.221.311.542.185.826-.3.678-.586 1.366-.951 2.008-.672 1.181-.542 2.304.119 3.424.065.112.12.23.219.417-1.777.58-3.34 1.495-4.606 2.88l-.2-.08c.148-1.427.264-2.857.456-4.277.168-1.241.559-2.424 1.276-3.468C7.219 1.246 8.354.618 9.893.723M20.88 17.17h-.992v1.898h-1.774v-1.894h-1.82v-1.723h1.786v-1.89h1.794v1.867h1.758v1.743z"/><path fill="#fd8135" d="M13.637 14.651v.779h1.813v1.724h-1.805v1.92h-1.772v-1.898h-1.771v-1.729h1.762v-1.894h1.773z"/><path fill="#fb8035" d="m10.845 7.162-.79.114c.373-1.824.76-3.589 2.306-4.796.614-.48 1.347-.607 2.113-.467.483.088.57.273.312.688-.254.41-.508.828-.82 1.193-.761.89-.7 1.821-.214 2.795l.231.466c-1.07 0-2.08 0-3.138.007"/></svg>