<svg xmlns="http://www.w3.org/2000/svg" width="25" height="25" fill="none" viewBox="0 0 25 25"><path fill="#ff9d00" d="M24.032 19.445a1.57 1.57 0 0 0 .212-1.27 1.42 1.42 0 0 0-.479-.754c.11-.181.183-.383.213-.593.066-.456-.086-.912-.427-1.284a1.4 1.4 0 0 0-1.056-.448q-.072 0-.148.007a10.4 10.4 0 0 0 .474-3.11c0-5.736-4.65-10.387-10.388-10.387-5.736 0-10.387 4.65-10.387 10.388a10.4 10.4 0 0 0 .47 3.102h-.01c-.416 0-.791.159-1.057.448-.34.371-.492.828-.426 1.284.03.21.102.412.212.593a1.42 1.42 0 0 0-.479.753 1.57 1.57 0 0 0 .213 1.271q-.033.051-.061.106c-.205.39-.219.83-.037 1.24.275.622.957 1.111 2.283 1.637.825.327 1.58.536 1.586.538 1.09.283 2.077.427 2.93.427 1.403 0 2.449-.384 3.117-1.142 1.13.18 2.282.173 3.41-.019.667.77 1.72 1.16 3.133 1.16.854 0 1.84-.143 2.93-.426.007-.002.762-.21 1.587-.538 1.326-.526 2.008-1.015 2.283-1.637a1.4 1.4 0 0 0-.098-1.346m-13.723 1.62a4 4 0 0 1-.185.295c-.173.252-.4.446-.663.59-.504.274-1.142.37-1.79.37-1.024 0-2.073-.24-2.662-.392-.029-.008-3.605-1.018-3.152-1.878.076-.144.201-.202.36-.202.637 0 1.798.95 2.297.95.111 0 .19-.048.222-.164.212-.763-3.232-1.083-2.942-2.187.051-.196.19-.275.385-.275.843 0 2.735 1.482 3.13 1.482q.047 0 .065-.027l.005-.009c.185-.307.079-.53-1.193-1.309l-.123-.074c-1.4-.848-2.382-1.358-1.823-1.966.064-.07.155-.101.266-.101.131 0 .29.044.465.117.74.312 1.764 1.163 2.192 1.533.127.11.201.177.201.177s.542.564.87.564a.2.2 0 0 0 .183-.103c.232-.392-2.159-2.204-2.294-2.951-.091-.507.064-.764.352-.764.137 0 .304.058.488.175.571.363 1.675 2.26 2.079 2.997a.65.65 0 0 0 .575.352c.413 0 .736-.411.038-.933-1.05-.786-.682-2.07-.18-2.15a.4.4 0 0 1 .064-.004c.456 0 .657.785.657.785s.589 1.48 1.601 2.491c.919.918 1.047 1.671.512 2.611m3.273.174-.053.006-.23.024-.047.004-.042.004-.06.005-.066.004-.066.005h-.014l-.052.003-.022.002-.062.003-.071.003-.065.002-.043.001h-.022l-.04.001h-.062l-.055.001h-.077l-.18-.001-.05-.002h-.04l-.053-.002-.063-.003-.058-.002h-.015l-.055-.004-.046-.002-.035-.002-.134-.01-.047-.003-.059-.006-.184-.018h-.002c.562-1.253.278-2.423-.857-3.557-.745-.744-1.24-1.842-1.343-2.083-.208-.713-.758-1.506-1.672-1.506q-.117 0-.231.018c-.4.063-.75.293-1 .64-.27-.335-.533-.602-.77-.753-.358-.227-.715-.342-1.062-.342-.434 0-.822.178-1.093.502l-.007.008-.015-.064v-.003a11 11 0 0 1-.108-.532l-.022-.133v-.004l-.008-.051-.005-.03-.007-.052-.01-.068-.009-.068-.008-.069-.007-.065-.001-.005a13 13 0 0 1-.036-.406l-.001-.01-.004-.065-.004-.07-.003-.07-.003-.06v-.018l-.002-.057-.002-.047v-.058l-.002-.06v-.12a9.315 9.315 0 0 1 9.315-9.315 9.315 9.315 0 0 1 9.315 9.315v.18l-.002.05-.001.044-.002.056v.002l-.002.065-.003.057v.014l-.004.061-.003.048q-.009.147-.022.292l-.005.051v.002l-.012.115-.01.098-.007.05-.008.06-.008.063-.01.072-.01.057-.01.064-.01.063-.011.064a7 7 0 0 1-.075.377l-.014.063a1.4 1.4 0 0 0-.992-.394q-.524 0-1.063.342c-.237.15-.5.418-.77.753a1.53 1.53 0 0 0-1-.64 1.5 1.5 0 0 0-.23-.018c-.915 0-1.465.793-1.673 1.506-.103.241-.598 1.34-1.344 2.084-1.134 1.13-1.42 2.296-.867 3.544m9.617-2.509-.012.032a.7.7 0 0 1-.098.16l-.024.029-.017.019-.027.028c-.166.164-.418.307-.703.44l-.098.043-.033.015-.135.057-.069.028q-.242.1-.485.192l-.068.026-.068.027-.133.052-.066.027-.064.026-.031.013-.062.026c-.472.203-.811.409-.74.664l.007.021a.2.2 0 0 0 .048.082c.084.087.236.073.428.004l.081-.031.017-.007.138-.062.036-.018c.235-.115.502-.27.766-.41a7 7 0 0 1 .322-.164c.25-.117.486-.2.675-.2.09 0 .168.017.233.06l.011.006.02.016a.4.4 0 0 1 .065.07l.016.023.015.026c.094.178.015.362-.168.542-.176.173-.45.343-.76.5l-.07.035c-.926.454-2.138.797-2.155.801-.323.084-.785.194-1.305.276l-.077.012-.013.002-.175.024-.18.023h-.01a8 8 0 0 1-.66.05h-.002q-.12.005-.24.005h-.091a6 6 0 0 1-.364-.017h-.008a3 3 0 0 1-.264-.029 3 3 0 0 1-.218-.035l-.003-.001-.128-.027q-.037-.007-.073-.017l-.014-.004-.036-.01-.006-.001-.038-.011-.041-.012-.005-.002-.036-.01-.04-.014-.034-.01-.024-.01-.07-.025-.021-.008-.018-.007-.104-.044-.023-.011-.004-.002-.024-.011-.047-.023-.005-.003-.022-.012a2 2 0 0 1-.119-.067l-.02-.013-.032-.02-.028-.018-.03-.02-.017-.013-.055-.041-.029-.022-.034-.029q-.014-.01-.027-.023l-.001-.001-.058-.053-.001-.001-.03-.029-.027-.029-.028-.03-.026-.029-.003-.003a1 1 0 0 1-.076-.094 2 2 0 0 1-.094-.135l-.029-.045-.067-.107-.003-.006-.024-.04-.012-.022-.013-.023-.007-.012-.005-.008-.024-.045-.01-.02-.012-.02-.01-.022a3 3 0 0 1-.088-.189l-.017-.041-.007-.02a2 2 0 0 1-.096-.324l-.01-.06-.012-.079-.002-.02-.006-.078v-.02l-.002-.039c-.007-.525.26-1.03.827-1.598 1.013-1.011 1.602-2.491 1.602-2.491s.016-.062.049-.152l.035-.088.044-.097.005-.01.01-.018q.025-.05.057-.1l.017-.028a1 1 0 0 1 .092-.118l.015-.015a.5.5 0 0 1 .201-.136l.01-.004.042-.01.003-.002.049-.006h.027a.3.3 0 0 1 .065.004.44.44 0 0 1 .263.165.6.6 0 0 1 .066.091l.042.074.015.032.008.017.027.068a1.2 1.2 0 0 1 .072.396 2 2 0 0 1-.002.141 1.5 1.5 0 0 1-.095.427l-.016.04a1 1 0 0 1-.092.184q-.03.05-.064.1l-.014.02a1.7 1.7 0 0 1-.39.394 2 2 0 0 0-.207.181c-.185.194-.228.365-.187.495l.026.059a.3.3 0 0 0 .05.065l.007.007.021.019.008.006.015.01q.02.015.041.027l.018.009a.5.5 0 0 0 .085.032l.008.002.01.003.01.003.01.002.01.002.01.002.022.003h.008l.012.002.008.001.013.001h.09l.017-.003.016-.001.01-.002a.7.7 0 0 0 .144-.039l.02-.008.032-.015.025-.014a.6.6 0 0 0 .117-.085l.018-.016.008-.008.016-.017a.6.6 0 0 0 .102-.142c.164-.3.443-.791.756-1.293l.036-.058.036-.058.055-.087.019-.028.037-.058.15-.228.037-.056q.112-.168.225-.323l.037-.05a7 7 0 0 1 .252-.328l.035-.042.017-.02.034-.04.017-.019.05-.055.048-.051.032-.033q.094-.095.205-.17l.017-.01.018-.012.033-.02c.29-.165.531-.177.67-.038.084.084.13.223.128.416v.036l-.002.026-.003.033q0 .016-.003.03v.008l-.004.026v.008a1 1 0 0 1-.061.23 1 1 0 0 1-.09.164l-.013.022a3 3 0 0 1-.165.23l-.02.024a6 6 0 0 1-.21.25l-.024.026-.094.104-.025.026-.049.053-.05.053-.05.054-.051.053-.052.054-.104.108c-.499.51-1.024 1.02-1.202 1.338l-.032.064a.27.27 0 0 0-.029.147.1.1 0 0 0 .014.037l.017.026.02.022a.2.2 0 0 0 .146.055h.028l.015-.002.011-.002h.005l.011-.003h.003l.012-.003.005-.001a.4.4 0 0 0 .058-.018l.066-.028.016-.008.016-.008a1 1 0 0 0 .115-.066l.017-.011.016-.011.016-.011.009-.006.087-.063.002-.002a4 4 0 0 0 .16-.13l.025-.023.003-.002.013-.012.084-.077.01-.01.022-.022.014-.013.005-.005.002-.002.014-.014.01-.01.005-.004.005-.005.002-.002.004-.004.025-.022.014-.012.022-.02.017-.015.009-.008.018-.015.026-.023.013-.012.193-.166.031-.026.05-.042.052-.043q.101-.084.218-.178l.05-.04.325-.253q.159-.12.325-.237l.047-.033.099-.068.03-.02.178-.117.03-.019.03-.018.088-.054.03-.018.059-.034.057-.033.012-.006.045-.025.057-.03.029-.015.027-.014.028-.014a3 3 0 0 1 .335-.135l.005-.002.023-.006h.002q.024-.008.046-.013h.002a1 1 0 0 1 .194-.026h.01q.02 0 .04.003l.018.002h.003l.017.002.018.004h.002l.016.004.018.006a.3.3 0 0 1 .108.064l.003.003.007.006.006.007q.075.078.12.176l.006.01a.4.4 0 0 1 .024.076.4.4 0 0 1-.02.238l-.03.07-.011.018a1 1 0 0 1-.135.179l-.011.011a2 2 0 0 1-.1.098l-.014.012-.083.07-.014.012a3 3 0 0 1-.175.133 6 6 0 0 1-.242.166 12 12 0 0 1-.343.216c-.242.149-.51.308-.796.481l-.074.045-.229.141-.036.023-.069.044-.136.088-.037.024-.053.035-.017.011-.053.036-.028.02-.033.022-.03.022q-.078.054-.144.103l-.016.013-.054.041-.023.018q-.057.046-.104.088l-.015.014-.025.024-.017.017-.008.008-.052.054-.008.01-.047.06-.006.008-.043.074-.004.01-.002.005-.002.006-.007.018-.01.037v.008l-.002.009-.001.007v.062l.002.01.002.013.003.014.003.013.009.026.006.015.001.003.004.01.007.014.021.041.009.014.013.02.003.004.003.002.003.003.007.004.008.004.009.002c.07.016.216-.043.41-.145l.035-.018.059-.032.029-.016.062-.036.04-.022c.255-.147.561-.337.877-.521l.09-.052.059-.038a14 14 0 0 1 .476-.26l.058-.029.228-.108.11-.047.042-.017.005-.002c.218-.086.415-.14.575-.14q.053 0 .104.009l.032.006h.002a.4.4 0 0 1 .097.04.3.3 0 0 1 .113.121.3.3 0 0 1 .027.063l.011.036a.5.5 0 0 1-.007.283"/><path fill="#ffd21e" d="M21.749 11.994v.12l-.002.06v.05l-.002.044-.002.056v.002l-.005.122v.014l-.003.06-.003.049q-.01.147-.022.292l-.005.051v.002l-.007.064-.005.05-.011.1-.006.05-.017.122-.01.072-.009.056-.01.064-.011.064-.011.063a7 7 0 0 1-.061.316l-.014.062-.014.063a1.4 1.4 0 0 0-.992-.394c-.347 0-.705.115-1.062.342-.238.15-.5.418-.77.753a1.53 1.53 0 0 0-1-.64 1.5 1.5 0 0 0-.23-.019c-.915 0-1.465.794-1.674 1.507-.103.241-.598 1.339-1.343 2.084-1.13 1.13-1.417 2.294-.864 3.542l-.052.007-.09.01-.142.014-.046.004-.042.004-.06.004-.066.005-.066.005h-.014l-.052.003-.022.002-.061.002-.072.004-.065.002-.043.001h-.084l-.04.002h-.132l-.18-.002h-.05l-.04-.002-.052-.001-.064-.003-.058-.002h-.015l-.055-.004-.046-.002-.035-.002-.134-.01-.047-.004-.128-.011-.115-.012h-.002c.562-1.253.278-2.423-.857-3.558-.747-.742-1.242-1.84-1.345-2.081-.208-.713-.759-1.507-1.673-1.507a1.5 1.5 0 0 0-.23.018c-.4.064-.751.294-1 .64-.27-.335-.533-.602-.77-.752-.358-.227-.715-.342-1.063-.342-.434 0-.821.178-1.092.501l-.007.009-.015-.064v-.003a12 12 0 0 1-.108-.532l-.022-.133v-.005l-.009-.05-.011-.082-.01-.069-.009-.068-.016-.133v-.005l-.026-.266-.003-.034-.004-.058-.003-.048-.001-.01-.004-.065-.004-.07-.003-.07-.003-.06v-.019l-.003-.056v-.048l-.002-.057-.001-.06v-.12a9.315 9.315 0 0 1 18.629 0"/><path fill="#32343d" d="M15.46 9.584c.341.121.477.823.822.64a1.34 1.34 0 1 0-1.813-.554c.164.308.685-.193.99-.086m-6.315.001c-.342.121-.478.823-.823.64a1.34 1.34 0 1 1 1.813-.554c-.164.308-.685-.194-.99-.086m6.706 2.751c0 .793-.367 2.08-1.367 2.869a2.33 2.33 0 0 0-1.342-1.117c-.223-.07-.461.697-.708.697-.231 0-.454-.773-.665-.71a2.33 2.33 0 0 0-1.422 1.203c-1.074-.78-1.465-2.124-1.465-2.942 0-1.206 1.56.639 3.485.639.924 0 1.764-.426 2.388-.734.675-.335 1.097-.532 1.097.095"/><path fill="#ff323d" d="M14.482 15.204c-.521.41-1.214.686-2.116.686-.848 0-1.511-.243-2.02-.613a2.33 2.33 0 0 1 1.422-1.203c.21-.063.434.71.665.71.247 0 .485-.768.708-.696q.05.015.1.034c.531.197.973.582 1.241 1.082"/><path fill="#ffad03" d="M18.733 10.72a.871.871 0 1 0 0-1.742.871.871 0 0 0 0 1.742m-12.465 0a.871.871 0 1 0 0-1.743.871.871 0 0 0 0 1.743"/><path fill="#ffd21e" d="M10.124 21.36c.738-1.082.685-1.895-.327-2.906s-1.601-2.491-1.601-2.491-.22-.86-.722-.78c-.501.078-.869 1.363.181 2.148 1.05.787-.209 1.32-.613.582s-1.508-2.634-2.08-2.997-.974-.16-.84.588c.136.748 2.527 2.56 2.294 2.952-.232.392-1.052-.46-1.052-.46S2.798 15.66 2.24 16.268s.423 1.118 1.824 1.966c1.4.847 1.508 1.07 1.31 1.392-.199.32-3.29-2.286-3.58-1.181s3.155 1.425 2.941 2.187-2.426-1.443-2.879-.583c-.453.859 3.123 1.87 3.153 1.878 1.155.3 4.09.934 5.115-.569m4.753.002c-.738-1.082-.686-1.895.326-2.906s1.602-2.491 1.602-2.491.22-.86.721-.78c.502.078.87 1.363-.18 2.148-1.05.787.208 1.32.613.582.404-.738 1.506-2.634 2.079-2.997.572-.363.974-.16.84.588-.136.748-2.527 2.56-2.294 2.952.232.392 1.052-.461 1.052-.461s2.566-2.335 3.125-1.727c.559.609-.424 1.119-1.824 1.966-1.4.848-1.509 1.071-1.31 1.392s3.29-2.285 3.58-1.18c.29 1.104-3.155 1.425-2.942 2.187s2.426-1.444 2.879-.584-3.124 1.87-3.153 1.878c-1.155.3-4.09.935-5.114-.568"/></svg>