<svg width="25" height="25" viewBox="0 0 25 25" fill="none" xmlns="http://www.w3.org/2000/svg">
<path d="M3.16113 12.8994C3.16554 12.9447 3.17023 12.9898 3.17522 13.0348C3.17016 12.9897 3.16546 12.9446 3.16113 12.8994Z" fill="#FFD21E"/>
<path d="M3.22949 13.4473C3.23683 13.4919 3.24417 13.5363 3.2515 13.5806C3.2438 13.5363 3.23646 13.4919 3.22949 13.4473Z" fill="#FFD21E"/>
<path d="M3.25195 13.5801C3.27124 13.6923 3.29247 13.8037 3.31564 13.9144C3.29232 13.8037 3.27109 13.6923 3.25195 13.5801Z" fill="#FFD21E"/>
<path d="M3.31543 13.9141C3.32928 13.98 3.34394 14.046 3.3594 14.1119C3.34394 14.0461 3.32928 13.9802 3.31543 13.9141Z" fill="#FFD21E"/>
<path d="M21.583 13.7488C21.5911 13.7067 21.5988 13.6645 21.6062 13.6221C21.5989 13.6641 21.5912 13.7064 21.583 13.7488Z" fill="#FFD21E"/>
<path d="M24.0318 19.4452C24.1549 19.2603 24.2374 19.0515 24.274 18.8324C24.3106 18.6133 24.3004 18.389 24.2442 18.1741C24.1626 17.864 23.994 17.6062 23.7651 17.4209C23.8753 17.2398 23.9476 17.0382 23.9777 16.8282C24.0437 16.3717 23.8922 15.9159 23.5512 15.5443C23.2858 15.2551 22.9105 15.0959 22.495 15.0959C22.4468 15.0959 22.3976 15.0984 22.3475 15.1034C22.6624 14.097 22.822 13.0484 22.821 11.9939C22.821 6.25729 18.1703 1.60645 12.4335 1.60645C6.69669 1.60645 2.0455 6.25685 2.0455 11.9939C2.04447 13.0457 2.20329 14.0916 2.51653 15.0957H2.50554C2.09002 15.0957 1.71473 15.2548 1.44937 15.544C1.1086 15.9154 0.956901 16.3715 1.02286 16.828C1.05292 17.0379 1.12524 17.2396 1.23545 17.4207C1.00659 17.6059 0.837961 17.8638 0.756396 18.1739C0.700133 18.3888 0.689998 18.6132 0.726659 18.8323C0.763319 19.0514 0.845945 19.2603 0.969103 19.4452C0.947118 19.4793 0.927001 19.5147 0.907984 19.5509C0.702643 19.9406 0.689451 20.381 0.870719 20.7912C1.14553 21.4128 1.82828 21.9025 3.1541 22.4281C3.97855 22.7552 4.73352 22.9642 4.74022 22.9661C5.83069 23.2489 6.81694 23.3926 7.67074 23.3926C9.07262 23.3926 10.1187 23.0091 10.7867 22.2514C11.917 22.4308 13.0691 22.4242 14.1973 22.232C14.8644 23.0025 15.9164 23.3926 17.3302 23.3926C18.1839 23.3926 19.1702 23.2489 20.2607 22.9661C20.2674 22.9642 21.022 22.7552 21.8468 22.4281C23.1727 21.9025 23.8555 21.4128 24.1302 20.7912C24.3114 20.381 24.2982 19.9406 24.0929 19.5509C24.0741 19.5144 24.0536 19.479 24.0318 19.4452ZM10.3087 21.0652C10.2541 21.1613 10.1925 21.2594 10.1241 21.3596C9.95137 21.6124 9.72427 21.8056 9.46066 21.9492C8.95654 22.224 8.31875 22.3201 7.67074 22.3201C6.647 22.3201 5.59754 22.0805 5.00932 21.9279C4.98041 21.9204 1.40375 20.9101 1.85665 20.0502C1.93271 19.9057 2.05825 19.8479 2.2161 19.8479C2.85367 19.8479 4.0146 20.7973 4.51356 20.7973C4.62502 20.7973 4.70362 20.7498 4.73572 20.634C4.94831 19.8714 1.50389 19.5509 1.79399 18.4466C1.84521 18.2512 1.98405 18.1718 2.17928 18.1718C3.02219 18.1717 4.91402 19.6541 5.30975 19.6541C5.34009 19.6541 5.36185 19.6452 5.37362 19.6265C5.37537 19.6236 5.37713 19.6209 5.37878 19.618C5.56445 19.3113 5.45793 19.0884 4.18554 18.3091C4.14596 18.2849 4.10525 18.2601 4.06341 18.2348C2.66328 17.3873 1.68054 16.8774 2.23952 16.269C2.30382 16.1987 2.39495 16.1676 2.50565 16.1676C2.63701 16.1676 2.79596 16.2116 2.97096 16.2852C3.71044 16.5971 4.73528 17.4475 5.16344 17.8184C5.28963 17.9283 5.36405 17.9955 5.36405 17.9955C5.36405 17.9955 5.9061 18.5592 6.2339 18.5592C6.30931 18.5592 6.37328 18.5295 6.4167 18.4559C6.6492 18.0641 4.25798 16.252 4.12321 15.5045C4.03175 14.9978 4.1873 14.7413 4.47497 14.7413C4.61172 14.7413 4.7787 14.7994 4.96282 14.9164C5.53444 15.2791 6.63798 17.1755 7.04196 17.9132C7.17739 18.1604 7.40868 18.2649 7.61698 18.2649C8.03031 18.2649 8.35349 17.8539 7.6548 17.3318C6.60479 16.5461 6.97326 15.2619 7.47441 15.1828C7.49575 15.1794 7.51733 15.1777 7.53894 15.1777C7.99469 15.1777 8.19574 15.9631 8.19574 15.9631C8.19574 15.9631 8.78495 17.4427 9.79715 18.4541C10.7156 19.3721 10.8439 20.1255 10.3087 21.0652ZM13.5818 21.2386L13.5294 21.2449C13.4995 21.2484 13.4697 21.2518 13.4398 21.2551C13.3927 21.26 13.3456 21.2646 13.2983 21.269L13.2521 21.2732L13.21 21.2767L13.1502 21.2816C13.1282 21.2832 13.1062 21.2849 13.0843 21.2863L13.0183 21.2907L13.0038 21.2916C12.9865 21.2926 12.9693 21.2937 12.9519 21.2945L12.9299 21.2957C12.9095 21.2968 12.889 21.2978 12.8685 21.2987L12.797 21.3018L12.7322 21.304L12.689 21.3052H12.667C12.6535 21.3052 12.6401 21.306 12.6265 21.3061C12.6194 21.3061 12.6122 21.3061 12.6051 21.3061C12.5916 21.3061 12.5782 21.3061 12.5646 21.3067L12.5097 21.3074C12.4841 21.3074 12.4586 21.3074 12.4327 21.3074C12.3724 21.3074 12.3123 21.3068 12.2522 21.3056L12.2035 21.3045C12.1897 21.3045 12.1758 21.3039 12.1621 21.3034L12.1105 21.3019L12.0465 21.2995L11.9887 21.297L11.9738 21.2963L11.9188 21.2934C11.9035 21.2926 11.8884 21.2918 11.8732 21.2908L11.8377 21.2887C11.7929 21.2859 11.7483 21.2827 11.7038 21.2793L11.6571 21.2755C11.6374 21.274 11.6177 21.2722 11.5982 21.2705C11.5752 21.2685 11.5522 21.2663 11.5292 21.2641C11.4906 21.2605 11.4522 21.2566 11.4138 21.2523H11.412C11.9737 19.9992 11.6896 18.8289 10.5545 17.6947C9.81012 16.9512 9.31479 15.8534 9.21212 15.6123C9.00414 14.8988 8.45363 14.1056 7.5396 14.1056C7.46229 14.1057 7.38511 14.1118 7.30875 14.1239C6.90829 14.1869 6.55818 14.4174 6.30843 14.7643C6.03856 14.4286 5.77627 14.1617 5.53894 14.011C5.18136 13.7842 4.82443 13.6692 4.47662 13.6692C4.04263 13.6692 3.6547 13.8474 3.38429 14.1707L3.37747 14.1789C3.3723 14.1576 3.36736 14.1364 3.3623 14.115L3.36164 14.1122C3.34647 14.0467 3.33181 13.9808 3.31767 13.9144C3.29444 13.8037 3.27322 13.6923 3.25402 13.5802C3.2467 13.5362 3.23937 13.4918 3.23204 13.447C3.23204 13.4454 3.23204 13.444 3.23138 13.4425C3.22874 13.4257 3.22621 13.4087 3.22368 13.3919C3.22215 13.3819 3.22061 13.3718 3.21918 13.3618C3.21665 13.3445 3.21412 13.3272 3.2117 13.3099C3.20851 13.2873 3.20533 13.2645 3.20236 13.2419C3.19939 13.2192 3.19631 13.1965 3.19345 13.1737C3.1906 13.151 3.18785 13.1282 3.1851 13.1055C3.18235 13.0827 3.18004 13.0621 3.17763 13.0405L3.17697 13.035C3.17206 12.9901 3.16737 12.945 3.1629 12.8998C3.15872 12.8563 3.15483 12.8128 3.15124 12.7693C3.15025 12.7583 3.14937 12.7467 3.1485 12.7352C3.14696 12.716 3.14553 12.6967 3.1441 12.6773C3.14289 12.6614 3.14179 12.6454 3.1408 12.6294C3.1408 12.6257 3.14025 12.6219 3.14003 12.6184C3.1386 12.5971 3.13717 12.5756 3.13596 12.5542C3.13453 12.531 3.13333 12.5078 3.13212 12.4846C3.13091 12.4614 3.1297 12.4382 3.12871 12.4149C3.12783 12.3946 3.12695 12.3744 3.12618 12.354L3.12552 12.3356C3.12486 12.3169 3.1242 12.2981 3.12365 12.2794L3.12233 12.2316C3.12233 12.2126 3.12145 12.1934 3.12112 12.1744C3.12079 12.1554 3.12035 12.1344 3.12013 12.1143C3.11991 12.0942 3.12013 12.0743 3.11958 12.0542C3.11903 12.0341 3.11958 12.0141 3.11958 11.9939C3.11958 6.84966 7.29018 2.67905 12.4349 2.67905C17.5797 2.67905 21.7502 6.84944 21.7502 11.9939C21.7502 12.0141 21.7502 12.0341 21.7502 12.0542C21.7502 12.0743 21.7502 12.0943 21.7502 12.1143C21.7502 12.1343 21.7496 12.1544 21.7492 12.1744C21.7492 12.191 21.7485 12.2074 21.7481 12.2241C21.7481 12.239 21.7474 12.2538 21.7469 12.2681C21.7469 12.2869 21.7458 12.3057 21.7451 12.3245V12.326C21.7443 12.348 21.7435 12.3698 21.7426 12.3913C21.7418 12.4103 21.7409 12.4294 21.7401 12.4485L21.7394 12.462C21.7384 12.4823 21.7373 12.5026 21.7361 12.523C21.7352 12.5391 21.7343 12.5552 21.7332 12.5712C21.7273 12.6689 21.72 12.7662 21.7113 12.8632C21.7097 12.8802 21.7081 12.8973 21.7064 12.9143C21.7065 12.9149 21.7065 12.9154 21.7064 12.916C21.7044 12.9373 21.7023 12.9587 21.6999 12.9801C21.6982 12.997 21.6964 13.0138 21.6944 13.0306C21.6908 13.0636 21.6872 13.0966 21.6834 13.1295L21.6772 13.1795C21.6746 13.1991 21.672 13.2187 21.6695 13.2383C21.6666 13.2598 21.6638 13.2812 21.6607 13.3025C21.6574 13.3265 21.6539 13.3504 21.6504 13.3742L21.6418 13.4306C21.6385 13.4519 21.6351 13.4731 21.6317 13.4945C21.6283 13.5158 21.6247 13.5369 21.6207 13.5581C21.6166 13.5793 21.6134 13.6004 21.6097 13.6216C21.6024 13.6639 21.5946 13.7061 21.5865 13.7483C21.5786 13.7887 21.5707 13.829 21.5625 13.8692C21.5579 13.8919 21.5532 13.9146 21.5483 13.9373C21.5439 13.9581 21.5394 13.9788 21.5349 13.9995C21.5304 14.0203 21.5257 14.0412 21.521 14.062C21.2588 13.8072 20.9116 13.6684 20.5287 13.6684C20.1812 13.6684 19.8239 13.7833 19.4663 14.0101C19.2291 14.1608 18.9669 14.4278 18.6969 14.7634C18.4468 14.4165 18.0967 14.186 17.6965 14.123C17.6202 14.1109 17.543 14.1048 17.4657 14.1047V14.1047C16.5513 14.1047 16.0013 14.8979 15.7932 15.6114C15.6899 15.8525 15.1946 16.9504 14.4494 17.695C13.3151 18.8255 13.0289 19.9907 13.5818 21.2386ZM23.1988 18.7301C23.1976 18.7336 23.1964 18.7371 23.195 18.7411C23.1925 18.7481 23.1899 18.755 23.187 18.762C23.1826 18.7723 23.178 18.7826 23.173 18.7929C23.1697 18.7997 23.1663 18.8065 23.1627 18.8132C23.1536 18.8301 23.1436 18.8468 23.1327 18.8633C23.1195 18.8832 23.1051 18.9028 23.0894 18.9221C23.0817 18.9317 23.0736 18.9412 23.0652 18.9507C23.0596 18.9571 23.0542 18.9635 23.0478 18.9697C23.0392 18.9791 23.03 18.9884 23.0208 18.9976C22.8554 19.1616 22.6031 19.3054 22.3179 19.4373C22.2856 19.452 22.2529 19.4666 22.2198 19.4813L22.1868 19.4959C22.1648 19.5056 22.1428 19.5153 22.1197 19.5247C22.0977 19.5343 22.0748 19.5438 22.052 19.5532L21.9834 19.5815C21.823 19.6475 21.6587 19.7104 21.4983 19.7726L21.4298 19.7992L21.362 19.8257C21.3169 19.8433 21.2725 19.8608 21.2287 19.8784L21.1634 19.9047L21.0993 19.931L21.0677 19.9442C21.0469 19.953 21.0262 19.9616 21.0057 19.9704C20.5341 20.1728 20.1948 20.3787 20.2661 20.6341C20.268 20.6414 20.2702 20.6483 20.2727 20.655C20.2791 20.6739 20.2878 20.6919 20.2987 20.7086C20.3051 20.7186 20.3125 20.728 20.3207 20.7367C20.4046 20.8237 20.557 20.81 20.7494 20.7409C20.765 20.7352 20.7809 20.7292 20.7971 20.7228C20.8081 20.7187 20.8191 20.7143 20.8301 20.7098L20.8468 20.7028C20.8908 20.6841 20.9374 20.6633 20.985 20.6406C20.997 20.635 21.0089 20.6296 21.021 20.6233C21.2562 20.5083 21.5228 20.3534 21.7873 20.2124C21.8279 20.1904 21.8686 20.1693 21.909 20.1484C21.9764 20.1135 22.0433 20.0802 22.1092 20.0495C22.3597 19.9317 22.5951 19.8481 22.7845 19.8481C22.8733 19.8481 22.9518 19.8663 23.0171 19.9081L23.0281 19.9154C23.0351 19.9202 23.042 19.9255 23.0487 19.931C23.0732 19.9511 23.095 19.9745 23.1134 20.0003C23.1187 20.008 23.1243 20.0161 23.1292 20.0243C23.1342 20.0326 23.1392 20.0413 23.1439 20.0503C23.2375 20.2279 23.1592 20.4118 22.9759 20.5921C22.8001 20.7653 22.5265 20.935 22.2154 21.0922C22.1924 21.1038 22.1692 21.1155 22.1458 21.1269C21.2202 21.5814 20.0082 21.9237 19.9912 21.928C19.6683 22.0118 19.2064 22.1217 18.686 22.2039L18.609 22.2159L18.5964 22.2178C18.5685 22.2219 18.5406 22.226 18.5126 22.23C18.4823 22.2343 18.4518 22.2385 18.4213 22.2425C18.3618 22.2504 18.3018 22.2577 18.2414 22.2645L18.2304 22.2657C18.0148 22.2902 17.7936 22.308 17.5719 22.3156H17.5686C17.489 22.3184 17.4094 22.3199 17.3298 22.3199C17.3171 22.3199 17.3044 22.3199 17.2917 22.3199H17.2807C17.2665 22.3199 17.2523 22.3199 17.238 22.3199C17.1919 22.3193 17.1458 22.3181 17.0997 22.3164C17.0241 22.3136 16.949 22.3093 16.8743 22.3034C16.8714 22.3034 16.8685 22.3034 16.8656 22.3027C16.8371 22.3005 16.8089 22.298 16.7806 22.2951C16.7656 22.2938 16.7506 22.2923 16.7357 22.2905C16.6906 22.2858 16.6459 22.2803 16.6015 22.2743C16.5719 22.2703 16.5423 22.2659 16.5135 22.2612C16.4847 22.2565 16.454 22.2514 16.4245 22.2462C16.411 22.2438 16.3974 22.2413 16.384 22.2386L16.3809 22.238C16.3381 22.2298 16.2956 22.2209 16.2535 22.2112C16.229 22.2057 16.2045 22.2002 16.1803 22.1936L16.1657 22.1898C16.1537 22.1869 16.142 22.1837 16.1301 22.1805L16.1236 22.1787L16.0857 22.1677C16.0719 22.1639 16.0582 22.1598 16.0445 22.1558L16.0396 22.1543L16.0038 22.1433C15.9903 22.1392 15.9769 22.1348 15.9634 22.1304C15.9525 22.1267 15.9415 22.123 15.9305 22.1194L15.9062 22.1109C15.8829 22.1027 15.8597 22.0942 15.8367 22.0853L15.8147 22.0768L15.7967 22.0696C15.7616 22.0555 15.727 22.0409 15.6929 22.0256L15.67 22.0146L15.6663 22.0129C15.6582 22.0091 15.6502 22.0053 15.6421 22.0019C15.6262 21.9943 15.6105 21.9864 15.5949 21.9785L15.5901 21.976L15.5675 21.9642C15.5417 21.9506 15.5163 21.9365 15.4912 21.922C15.4771 21.9138 15.4632 21.9055 15.4493 21.897L15.4282 21.884C15.4172 21.8774 15.4072 21.8707 15.3968 21.8639L15.3693 21.8457C15.3593 21.839 15.3494 21.8322 15.3396 21.8252L15.3219 21.8127C15.3032 21.7993 15.2849 21.7856 15.267 21.7715C15.2574 21.7641 15.2478 21.7565 15.2384 21.7495C15.2269 21.7403 15.2156 21.7309 15.2044 21.7215C15.1949 21.7137 15.1857 21.7056 15.1765 21.6975L15.1757 21.6968C15.1658 21.6882 15.156 21.6794 15.1464 21.6705C15.1368 21.6618 15.1272 21.6529 15.1179 21.6439L15.1168 21.6428C15.107 21.6334 15.0973 21.624 15.0879 21.6143C15.0784 21.6046 15.0688 21.5951 15.0595 21.5853C15.0503 21.5755 15.0408 21.5655 15.0317 21.5554C15.0226 21.5453 15.0142 21.536 15.0057 21.5261L15.0028 21.5228C14.9944 21.5132 14.9862 21.5035 14.9781 21.4936C14.9606 21.4726 14.9435 21.451 14.927 21.429C14.9104 21.4069 14.8942 21.3843 14.8784 21.3613C14.8732 21.3537 14.8681 21.3462 14.8632 21.3387C14.853 21.3237 14.843 21.3088 14.8333 21.2939C14.8235 21.279 14.8139 21.2641 14.8043 21.2492C14.7947 21.2346 14.7854 21.2199 14.7762 21.2053C14.7715 21.1979 14.767 21.1907 14.7626 21.1833C14.754 21.1694 14.7455 21.1555 14.7372 21.1416C14.7361 21.1398 14.735 21.1379 14.7338 21.136C14.7258 21.1225 14.7179 21.1092 14.7103 21.0958C14.7059 21.0885 14.7018 21.0814 14.6978 21.0738C14.6937 21.0662 14.689 21.0584 14.6847 21.0507C14.6823 21.0467 14.6801 21.0426 14.6777 21.0385C14.6754 21.0345 14.6748 21.0333 14.6735 21.0306C14.6651 21.016 14.657 21.0011 14.6492 20.986C14.6455 20.9794 14.642 20.9728 14.6382 20.9663L14.6272 20.9451L14.6162 20.9241C14.609 20.9099 14.602 20.8956 14.5951 20.8815C14.5916 20.8744 14.5882 20.8674 14.585 20.8605C14.5777 20.8454 14.5708 20.8305 14.564 20.8156C14.5612 20.8096 14.5585 20.8036 14.556 20.7976C14.5496 20.7836 14.5435 20.7698 14.5377 20.7559C14.5347 20.749 14.5318 20.7421 14.529 20.7352C14.5233 20.7213 14.518 20.7076 14.5123 20.6938C14.5097 20.6872 14.507 20.6806 14.5046 20.674C14.494 20.6463 14.484 20.6187 14.4747 20.5913C14.4723 20.5844 14.47 20.5776 14.4679 20.5709C14.4638 20.5586 14.4599 20.5464 14.4562 20.5341C14.4495 20.5126 14.4433 20.4911 14.4377 20.4698C14.4357 20.4631 14.4339 20.4564 14.4323 20.4497C14.427 20.4296 14.4222 20.4096 14.4178 20.3896C14.4147 20.3763 14.4118 20.363 14.4093 20.3497C14.4079 20.343 14.4066 20.3362 14.4055 20.3297C14.4028 20.3164 14.4005 20.3032 14.3984 20.29C14.3951 20.2701 14.3923 20.2503 14.3899 20.2306C14.3889 20.224 14.3881 20.2175 14.3874 20.211C14.3868 20.2046 14.386 20.1979 14.3853 20.1912C14.3826 20.1649 14.3805 20.1387 14.3793 20.1127C14.3793 20.1061 14.3786 20.0995 14.3784 20.093C14.3779 20.0799 14.3775 20.0669 14.3774 20.054C14.3705 19.5288 14.6363 19.0238 15.2045 18.4558C16.2167 17.4446 16.8059 15.9648 16.8059 15.9648C16.8059 15.9648 16.8219 15.9027 16.8548 15.8135C16.8593 15.801 16.8642 15.7882 16.8695 15.7749C16.8757 15.7588 16.8824 15.7423 16.8897 15.7252C16.8992 15.7024 16.9098 15.6788 16.9212 15.6548C16.9254 15.6458 16.9298 15.6367 16.9343 15.6277C16.936 15.6246 16.9375 15.6215 16.939 15.6185C16.942 15.6124 16.9451 15.6063 16.9483 15.6002C16.9659 15.5665 16.9851 15.5325 17.006 15.4992C17.0116 15.4902 17.017 15.4813 17.0233 15.4724C17.0354 15.4544 17.0478 15.4369 17.0607 15.4197C17.0671 15.4111 17.0737 15.4028 17.0804 15.3944C17.0914 15.3807 17.1033 15.3672 17.1152 15.3541C17.12 15.3489 17.1247 15.3438 17.1296 15.3388C17.1883 15.2783 17.2554 15.2289 17.3313 15.2025L17.3408 15.1993C17.3472 15.1972 17.3536 15.1953 17.3601 15.1935C17.3675 15.1915 17.3751 15.1898 17.3828 15.1881L17.3863 15.1875C17.4024 15.1842 17.4186 15.1821 17.4349 15.181H17.4363C17.4448 15.181 17.4534 15.1801 17.4621 15.1801C17.4731 15.1801 17.4832 15.1801 17.4939 15.1813C17.5049 15.1822 17.5159 15.1835 17.5269 15.1853C17.6182 15.1997 17.705 15.254 17.7797 15.3378C17.7832 15.3417 17.7866 15.3456 17.7899 15.3496C17.807 15.3699 17.8231 15.391 17.838 15.413V15.413C17.8442 15.4219 17.8502 15.4312 17.856 15.4406C17.8708 15.4642 17.8846 15.4892 17.8978 15.5155C17.9031 15.5265 17.9081 15.5366 17.9131 15.5473C17.9156 15.5528 17.918 15.5583 17.9205 15.5639C17.9253 15.5749 17.9299 15.5859 17.9344 15.5976C17.9389 15.6086 17.9433 15.6205 17.9475 15.6322C17.9669 15.6872 17.9825 15.7435 17.994 15.8007C17.9966 15.8138 17.9991 15.827 18.0014 15.8403C18.0094 15.8882 18.015 15.9366 18.018 15.9852C18.0188 15.9992 18.0195 16.0135 18.0199 16.0278C18.0209 16.0614 18.0209 16.0953 18.0199 16.1297C18.0194 16.1428 18.0187 16.1559 18.0177 16.1691C18.0091 16.2934 17.9848 16.4161 17.9452 16.5342C17.9383 16.5548 17.9309 16.5752 17.9232 16.5958C17.9179 16.6094 17.9122 16.6231 17.9067 16.6369C17.8957 16.6641 17.883 16.6918 17.8696 16.7187C17.8596 16.739 17.8491 16.7593 17.8379 16.7797C17.8304 16.7932 17.8227 16.8067 17.8149 16.8202C17.7951 16.8539 17.7738 16.8874 17.7508 16.9206L17.7369 16.9405C17.718 16.9669 17.698 16.9931 17.677 17.0191C17.6391 17.0658 17.5987 17.1105 17.556 17.1529C17.4909 17.2182 17.4211 17.2786 17.3472 17.3337C17.2804 17.383 17.2174 17.4371 17.1586 17.4956C17.1521 17.5022 17.1457 17.5087 17.1395 17.5151C16.9548 17.709 16.9118 17.8801 16.9533 18.0098C16.9553 18.0157 16.9574 18.0215 16.9596 18.0273C16.9629 18.0359 16.9667 18.0443 16.9706 18.0525C16.9733 18.058 16.9762 18.0635 16.9793 18.0687C16.9917 18.09 17.0064 18.1098 17.0232 18.1277C17.0253 18.13 17.0275 18.1322 17.0297 18.1344L17.0363 18.141C17.043 18.1475 17.05 18.1537 17.0574 18.1598L17.0648 18.1658C17.0697 18.1696 17.0749 18.1735 17.0801 18.1767C17.0934 18.1861 17.1072 18.1947 17.1214 18.2026C17.1271 18.2057 17.1324 18.2087 17.1389 18.2117C17.1602 18.2222 17.1822 18.2311 17.2048 18.2384C17.2111 18.2405 17.2174 18.2424 17.2237 18.2442L17.2318 18.2463L17.2428 18.2493L17.2523 18.2516L17.2625 18.2538L17.2728 18.2559L17.2824 18.2575C17.2897 18.2589 17.2971 18.26 17.3044 18.2609L17.3115 18.2619L17.3242 18.2633L17.332 18.264L17.345 18.265H17.3526L17.3661 18.2657H17.3721H17.3847H17.3904H17.4086L17.4208 18.265L17.4348 18.2641L17.4519 18.2625L17.4679 18.2606C17.4715 18.2606 17.4753 18.2596 17.4789 18.259C17.487 18.2578 17.4953 18.2564 17.5034 18.2549C17.5235 18.2511 17.5434 18.2463 17.5631 18.2405C17.5832 18.2347 17.603 18.2279 17.6223 18.2201C17.6288 18.2174 17.6354 18.2147 17.6419 18.2118C17.6529 18.2071 17.6639 18.202 17.674 18.1965C17.6826 18.1924 17.691 18.1877 17.6994 18.183C17.712 18.1759 17.7246 18.1683 17.7368 18.1602C17.7649 18.1417 17.7915 18.121 17.8164 18.0983C17.8222 18.093 17.828 18.0873 17.8337 18.0819C17.8365 18.0792 17.8392 18.0766 17.8419 18.0738C17.8474 18.0681 17.8528 18.0628 17.8582 18.0567C17.869 18.0451 17.8795 18.0328 17.8897 18.02C17.916 17.9869 17.9393 17.9516 17.9596 17.9145C18.1237 17.6148 18.4031 17.1238 18.7157 16.6223C18.7278 16.6029 18.7397 16.5836 18.7518 16.5643C18.7639 16.5451 18.7761 16.5256 18.7883 16.5064C18.8066 16.4771 18.8249 16.4481 18.8433 16.4194L18.8617 16.3907C18.8741 16.3713 18.8865 16.3521 18.8988 16.3329C18.9484 16.2561 18.9983 16.1801 19.0484 16.105L19.0859 16.0489C19.1611 15.9374 19.2362 15.8291 19.3105 15.726L19.3475 15.6751C19.4025 15.5991 19.4574 15.5265 19.5114 15.4579C19.5413 15.4198 19.5708 15.3832 19.5999 15.3479L19.6346 15.3064C19.6404 15.2995 19.6456 15.2927 19.6519 15.2859C19.6634 15.2725 19.6748 15.2594 19.686 15.2465C19.6916 15.24 19.697 15.2336 19.7029 15.2273C19.7143 15.2146 19.7253 15.2022 19.7359 15.1901C19.7413 15.1841 19.7469 15.178 19.7524 15.1721C19.7689 15.1543 19.7852 15.1372 19.8012 15.1207C19.8122 15.1097 19.8224 15.0988 19.8331 15.0885C19.8953 15.0248 19.9641 14.9676 20.0382 14.918L20.0553 14.9071C20.061 14.9034 20.0663 14.8999 20.0726 14.8961C20.0836 14.8892 20.0946 14.8826 20.1063 14.8763C20.3969 14.7114 20.6375 14.6992 20.776 14.8377C20.8599 14.9216 20.9063 15.0606 20.9037 15.254C20.9037 15.2625 20.9037 15.2711 20.9031 15.2799C20.9031 15.2831 20.9031 15.2862 20.9031 15.2895C20.9031 15.2983 20.9023 15.3072 20.9016 15.3162C20.9016 15.3272 20.9003 15.3382 20.8992 15.3492C20.8981 15.3601 20.8976 15.3685 20.8965 15.3783C20.8965 15.381 20.8959 15.3839 20.8955 15.3867C20.8947 15.3953 20.8936 15.404 20.8924 15.4127C20.8924 15.4153 20.8924 15.418 20.8914 15.4207C20.8903 15.4297 20.889 15.4388 20.8876 15.448C20.8873 15.4505 20.8869 15.4531 20.8864 15.4556C20.8849 15.4665 20.8832 15.4769 20.8812 15.4877C20.8802 15.4938 20.8791 15.4999 20.878 15.506C20.8748 15.5234 20.8707 15.5407 20.8657 15.5577C20.8604 15.5755 20.8542 15.5938 20.8469 15.6126C20.842 15.6252 20.8367 15.6378 20.831 15.6508C20.8252 15.6637 20.819 15.6767 20.8124 15.69C20.7992 15.7166 20.7842 15.744 20.7678 15.7721C20.7595 15.7861 20.7509 15.8004 20.7419 15.8148C20.7374 15.8219 20.7329 15.8292 20.7282 15.8368C20.7141 15.8587 20.6995 15.881 20.6842 15.9035C20.669 15.926 20.6526 15.9489 20.6351 15.9722C20.6124 16.0032 20.5884 16.0347 20.5631 16.0667L20.5439 16.0909C20.5117 16.1312 20.4779 16.1723 20.4425 16.2141C20.4212 16.2392 20.3995 16.2645 20.3773 16.29C20.3625 16.3069 20.3475 16.3239 20.3322 16.3411L20.3093 16.3669C20.2783 16.4014 20.2468 16.4362 20.2147 16.4711L20.1904 16.4975C20.1743 16.515 20.1574 16.5327 20.1413 16.5503C20.1251 16.5678 20.1083 16.5856 20.0914 16.6035L20.0408 16.6568C20.0239 16.6746 20.0067 16.6925 19.9896 16.7103C19.9724 16.7281 19.9553 16.7461 19.9379 16.7639C19.9033 16.7998 19.8685 16.8356 19.8335 16.8716C19.3351 17.3828 18.81 17.8923 18.6322 18.2098C18.6204 18.2306 18.6097 18.2519 18.6 18.2737C18.5747 18.3314 18.5642 18.3809 18.5713 18.4208C18.5737 18.4339 18.5783 18.4465 18.5851 18.458C18.5903 18.4669 18.5961 18.4755 18.6023 18.4836V18.4836C18.6082 18.4914 18.6145 18.4987 18.6213 18.5056V18.5056C18.6278 18.512 18.6347 18.5179 18.642 18.5233C18.6786 18.5494 18.7227 18.5628 18.7677 18.5615H18.7817L18.796 18.5605L18.8105 18.5588L18.8224 18.5571C18.824 18.5569 18.8256 18.5566 18.8272 18.5562L18.8382 18.5541L18.8411 18.5534L18.8532 18.5508L18.8575 18.5497C18.8616 18.5487 18.866 18.5475 18.8703 18.5463C18.8746 18.5451 18.8805 18.5434 18.8857 18.5418C18.8958 18.5387 18.9059 18.5353 18.9163 18.5316C18.9266 18.5278 18.9383 18.5233 18.9493 18.5187C18.9602 18.5141 18.9712 18.5094 18.9815 18.5043C18.987 18.5018 18.9925 18.4993 18.9977 18.4965L19.0141 18.4884C19.0354 18.4775 19.0568 18.4658 19.0782 18.4532C19.0952 18.4432 19.1122 18.4327 19.1292 18.4219L19.1456 18.4109C19.1511 18.4075 19.1566 18.4038 19.162 18.3999L19.1782 18.3889L19.1869 18.383C19.1948 18.3775 19.2027 18.372 19.2105 18.3664C19.2325 18.3512 19.2531 18.3356 19.2739 18.3198L19.2757 18.3183C19.2867 18.3099 19.2977 18.3013 19.3087 18.2927C19.3539 18.2571 19.3966 18.2213 19.4355 18.1874L19.4613 18.1648L19.4637 18.1626L19.4771 18.1506C19.5089 18.1221 19.5371 18.0956 19.5607 18.0736L19.5703 18.0643C19.5788 18.0563 19.5865 18.0488 19.5935 18.0423L19.6074 18.0287L19.6122 18.0238L19.6135 18.0225C19.6194 18.0167 19.6245 18.0115 19.6279 18.0081C19.633 18.0029 19.6361 17.9997 19.6371 17.9988L19.6382 17.9978L19.6426 17.9938C19.644 17.9924 19.6457 17.9909 19.6478 17.989L19.6496 17.9875L19.6542 17.9833L19.6792 17.9613L19.6932 17.9487C19.7 17.9427 19.7076 17.936 19.7152 17.9288L19.732 17.9139C19.735 17.9115 19.738 17.9088 19.741 17.906L19.7586 17.8906L19.7845 17.868L19.7982 17.856C19.8516 17.8095 19.9167 17.7533 19.9913 17.69L20.022 17.6642L20.0726 17.6218C20.0894 17.6076 20.1067 17.5932 20.1242 17.5786C20.1919 17.5225 20.2646 17.4628 20.3416 17.4009L20.3921 17.3604C20.4351 17.3262 20.4793 17.2912 20.5241 17.2561C20.5421 17.2419 20.5604 17.2278 20.579 17.2137C20.6065 17.1925 20.6342 17.1712 20.6622 17.1498C20.6803 17.1359 20.6986 17.1221 20.7172 17.1082C20.8226 17.0286 20.9314 16.9488 21.0415 16.8711L21.0887 16.8381C21.1217 16.8154 21.1547 16.7926 21.1877 16.7703L21.2176 16.7501C21.2487 16.7292 21.2798 16.7086 21.3108 16.6882C21.3394 16.6695 21.3679 16.6512 21.3964 16.6332L21.4262 16.6144L21.4559 16.596C21.4856 16.5776 21.5151 16.5595 21.5445 16.5419L21.5738 16.5244L21.6327 16.4901C21.6519 16.479 21.6711 16.468 21.6903 16.4572L21.7019 16.4507C21.7171 16.4422 21.7324 16.4339 21.7475 16.4257C21.7665 16.4154 21.7856 16.4054 21.8044 16.3957L21.8326 16.3812L21.86 16.3673C21.8695 16.3628 21.879 16.3581 21.8883 16.3535C21.9433 16.3265 21.9983 16.3019 22.0506 16.2804C22.0594 16.2768 22.0682 16.2731 22.0769 16.2694C22.0942 16.2621 22.1115 16.2555 22.1285 16.2496C22.1456 16.2438 22.1624 16.2379 22.179 16.2319C22.1941 16.2269 22.2087 16.2221 22.223 16.2177L22.2278 16.2163C22.2355 16.2139 22.2431 16.2117 22.2507 16.2097L22.2529 16.2091C22.2686 16.2046 22.2842 16.2006 22.2995 16.197H22.3007C22.3236 16.1915 22.3461 16.1867 22.3679 16.1831C22.3754 16.1818 22.3828 16.1806 22.3899 16.1796C22.4046 16.1774 22.419 16.1756 22.433 16.1744C22.4401 16.1737 22.4471 16.1731 22.454 16.1728C22.4679 16.1718 22.4814 16.1714 22.4947 16.1714C22.4982 16.1714 22.5016 16.1714 22.505 16.1714C22.5188 16.1714 22.5321 16.1722 22.5451 16.1736C22.5512 16.1736 22.5572 16.1748 22.5632 16.1755H22.5656C22.5715 16.1762 22.5775 16.1772 22.5833 16.1784C22.5891 16.1796 22.5949 16.1805 22.6007 16.1819H22.6025C22.6082 16.1831 22.6135 16.1847 22.6195 16.1863C22.6254 16.188 22.631 16.1896 22.6367 16.1917C22.6562 16.1982 22.6751 16.2067 22.6929 16.217C22.6979 16.2199 22.7029 16.223 22.7077 16.2262C22.7126 16.2294 22.7173 16.2327 22.7219 16.2362C22.73 16.2423 22.7378 16.2488 22.7452 16.2558L22.7485 16.259C22.7507 16.2609 22.7528 16.263 22.7548 16.2651L22.7608 16.2716C22.8102 16.3235 22.851 16.3828 22.8817 16.4475C22.8834 16.4511 22.8849 16.4547 22.8865 16.4585C22.8895 16.4657 22.8924 16.4729 22.895 16.4805C22.9015 16.4981 22.9068 16.5161 22.911 16.5344C22.9269 16.6071 22.9226 16.6828 22.8985 16.7532C22.8964 16.7595 22.8941 16.7659 22.8916 16.7723C22.8826 16.7962 22.8721 16.8195 22.8601 16.842C22.8568 16.848 22.8535 16.8542 22.85 16.8602C22.8117 16.9246 22.7664 16.9844 22.7149 17.0386L22.7039 17.0504C22.6876 17.0675 22.6706 17.0847 22.6528 17.1019C22.6449 17.1096 22.6367 17.1173 22.6285 17.125C22.6202 17.1327 22.6118 17.1404 22.6032 17.1482L22.5901 17.16C22.5814 17.1677 22.5725 17.1755 22.5635 17.1832C22.5455 17.1988 22.5268 17.2145 22.5074 17.2302C22.5025 17.2342 22.4975 17.2381 22.4927 17.2422C22.4731 17.258 22.453 17.2739 22.4321 17.2899C22.3955 17.318 22.3574 17.3463 22.3179 17.3749C22.2838 17.3994 22.2485 17.4242 22.212 17.4493C22.168 17.4794 22.1225 17.5099 22.0755 17.5406C21.992 17.5955 21.9038 17.6517 21.8108 17.7093C21.7852 17.7252 21.7594 17.7412 21.7331 17.7573C21.4913 17.906 21.2232 18.0651 20.9374 18.238L20.8634 18.2829C20.7823 18.3323 20.7059 18.3795 20.634 18.4245L20.5977 18.4473L20.5291 18.4912C20.502 18.5085 20.4756 18.5255 20.4499 18.5421C20.4305 18.5546 20.4115 18.5669 20.3929 18.5791L20.3563 18.6031C20.3382 18.615 20.3205 18.6268 20.3031 18.6384L20.2858 18.6494C20.2677 18.6615 20.25 18.6734 20.2327 18.6852L20.2046 18.7045L20.1716 18.7273L20.1411 18.7487C20.0898 18.7849 20.0421 18.8194 19.9982 18.8522L19.9817 18.8647C19.9631 18.8788 19.9452 18.8928 19.9279 18.9064C19.9202 18.9125 19.9126 18.9185 19.9052 18.9245C19.8671 18.9551 19.8325 18.9844 19.8014 19.0125L19.7861 19.0264C19.7774 19.0345 19.7689 19.0424 19.7606 19.0503C19.7549 19.0558 19.7496 19.0613 19.7438 19.0667L19.7359 19.0745C19.7307 19.0795 19.7257 19.0847 19.7208 19.0898C19.7079 19.1031 19.6958 19.1161 19.6845 19.1288L19.6764 19.1381C19.6584 19.159 19.6427 19.179 19.6288 19.1986L19.6227 19.2074C19.6119 19.223 19.602 19.2392 19.593 19.2559C19.5907 19.2601 19.5885 19.2644 19.5864 19.2686C19.5843 19.2728 19.5823 19.2769 19.5804 19.2811C19.5786 19.2853 19.5777 19.2871 19.5764 19.2901L19.5737 19.2964L19.5717 19.3018C19.5707 19.3043 19.5697 19.3068 19.5688 19.3094C19.5679 19.3119 19.5663 19.3164 19.5652 19.3204C19.5612 19.3324 19.558 19.3446 19.5556 19.3571C19.5549 19.3598 19.5545 19.3627 19.5541 19.3654C19.5536 19.3682 19.5532 19.3709 19.5529 19.3737C19.5525 19.3764 19.5521 19.3787 19.5519 19.3813L19.5512 19.3884C19.5512 19.3914 19.5512 19.3942 19.5512 19.3971C19.5512 19.3999 19.5512 19.3999 19.5512 19.4013C19.5512 19.4046 19.5512 19.4079 19.5512 19.4112C19.5512 19.4145 19.5512 19.4195 19.5512 19.4237C19.5512 19.4248 19.5512 19.4259 19.5512 19.4271C19.5512 19.4303 19.5512 19.4336 19.552 19.4369C19.5521 19.4389 19.5523 19.4408 19.5526 19.4428C19.5526 19.446 19.5534 19.4492 19.5538 19.4525C19.5543 19.4558 19.5553 19.4615 19.5562 19.466C19.5562 19.466 19.5562 19.466 19.5562 19.4667C19.557 19.471 19.5579 19.4752 19.559 19.4795C19.5601 19.4838 19.5612 19.4887 19.5625 19.4932C19.5649 19.5018 19.5678 19.5104 19.571 19.5191C19.5729 19.5242 19.5747 19.5292 19.5768 19.5343C19.5768 19.5353 19.5776 19.5364 19.578 19.5373C19.5795 19.5406 19.5809 19.5441 19.5824 19.5473C19.584 19.5506 19.5865 19.5565 19.5887 19.561C19.593 19.5701 19.5976 19.5792 19.6027 19.5885C19.6052 19.5931 19.6077 19.5977 19.6103 19.6023L19.6185 19.6163C19.6212 19.6209 19.624 19.6256 19.6269 19.6303C19.6284 19.6327 19.6301 19.6349 19.6319 19.6369L19.6346 19.6398L19.6376 19.6425L19.6409 19.6451C19.6432 19.6466 19.6455 19.6481 19.6479 19.6494V19.6494C19.6505 19.6506 19.6531 19.6517 19.6559 19.6528C19.6587 19.6538 19.6616 19.6545 19.6646 19.6553C19.7356 19.6712 19.8813 19.6125 20.075 19.5103C20.086 19.5044 20.098 19.4982 20.1097 19.4918L20.1687 19.4597L20.1975 19.4437C20.2179 19.4327 20.2389 19.4204 20.2602 19.4082C20.2731 19.4009 20.2861 19.3936 20.2991 19.3862C20.5552 19.2388 20.8611 19.0495 21.1772 18.8646C21.2068 18.8473 21.2366 18.83 21.2663 18.8129L21.326 18.7747C21.3558 18.7576 21.3856 18.7406 21.4154 18.7238C21.4553 18.7013 21.4952 18.679 21.535 18.6571C21.6245 18.608 21.7137 18.5605 21.8015 18.5156L21.86 18.4861C21.8988 18.4669 21.9373 18.4482 21.9753 18.43C22.0134 18.412 22.0511 18.3946 22.0884 18.378C22.1256 18.3615 22.1623 18.3457 22.1983 18.3306L22.2396 18.3139L22.2445 18.312C22.4626 18.2256 22.6604 18.1721 22.8204 18.1721C22.855 18.1718 22.8896 18.1747 22.9237 18.1806H22.9247C22.9357 18.1826 22.9457 18.1848 22.9558 18.1873H22.9577C22.9661 18.1894 22.9743 18.1918 22.9823 18.1944C22.9887 18.1965 22.9949 18.1987 23.0009 18.201C23.0069 18.2034 23.0104 18.2048 23.015 18.2069C23.0212 18.2096 23.0274 18.2125 23.0334 18.2156C23.0395 18.2186 23.0477 18.2231 23.0545 18.2273C23.0801 18.2428 23.1033 18.262 23.1232 18.2843C23.1321 18.2941 23.1402 18.3045 23.1477 18.3155C23.1502 18.319 23.1526 18.3227 23.1547 18.3265C23.1594 18.3336 23.1638 18.341 23.1679 18.3484C23.1732 18.358 23.178 18.368 23.1825 18.3785C23.187 18.3889 23.1912 18.3997 23.1951 18.4114C23.1991 18.4232 23.2025 18.4345 23.2061 18.4467C23.2321 18.5398 23.2295 18.6385 23.1988 18.7301V18.7301Z" fill="#FF9D00"/>
<path d="M21.7485 11.9936C21.7485 12.0137 21.7485 12.0337 21.7485 12.0538C21.7485 12.0739 21.7485 12.094 21.7485 12.114C21.7485 12.134 21.748 12.1541 21.7475 12.1741C21.7475 12.1907 21.7469 12.2071 21.7464 12.2238C21.7464 12.2386 21.7458 12.2534 21.7452 12.2677C21.7452 12.2865 21.7441 12.3053 21.7435 12.3241V12.3257C21.7427 12.3477 21.7418 12.3694 21.7409 12.391C21.7402 12.41 21.7393 12.4291 21.7384 12.4481L21.7378 12.4616C21.7367 12.4819 21.7356 12.5023 21.7345 12.5226C21.7336 12.5388 21.7327 12.5549 21.7316 12.5709C21.7257 12.6686 21.7183 12.7659 21.7096 12.8628C21.7081 12.8799 21.7064 12.8969 21.7048 12.914C21.7048 12.9145 21.7048 12.9151 21.7048 12.9156C21.7028 12.937 21.7006 12.9584 21.6983 12.9798C21.6965 12.9966 21.6948 13.0134 21.6928 13.0303C21.6892 13.0633 21.6855 13.0963 21.6818 13.1292L21.6755 13.1792C21.673 13.1988 21.6704 13.2184 21.6678 13.238C21.665 13.2594 21.6621 13.2809 21.659 13.3022C21.6558 13.3262 21.6522 13.35 21.6487 13.3739L21.6401 13.4303C21.6368 13.4516 21.6334 13.4728 21.63 13.4941C21.6266 13.5154 21.6231 13.5366 21.619 13.5578C21.615 13.579 21.6118 13.6001 21.608 13.6213C21.6007 13.6636 21.593 13.7058 21.5849 13.7479C21.577 13.7884 21.569 13.8287 21.5609 13.8688C21.5563 13.8916 21.5515 13.9143 21.5467 13.937C21.5423 13.9578 21.5378 13.9784 21.5333 13.9992C21.5288 14.02 21.5241 14.0409 21.5193 14.0616C21.2572 13.8068 20.91 13.668 20.527 13.668C20.1796 13.668 19.8223 13.783 19.4647 14.0098C19.2275 14.1605 18.9653 14.4275 18.6952 14.763C18.4451 14.4161 18.095 14.1856 17.6949 14.1226C17.6185 14.1106 17.5414 14.1045 17.4641 14.1044C16.5497 14.1044 15.9996 14.8976 15.7915 15.6111C15.6883 15.8521 15.193 16.95 14.4478 17.6946C13.3173 18.8243 13.0311 19.9894 13.584 21.2374L13.5316 21.2436C13.5017 21.2471 13.4719 21.2506 13.442 21.2539C13.3949 21.2588 13.3478 21.2634 13.3005 21.2678L13.2543 21.272L13.2122 21.2755L13.1524 21.2803C13.1304 21.282 13.1085 21.2836 13.0865 21.2851L13.0205 21.2895L13.006 21.2903C12.9888 21.2913 12.9715 21.2924 12.9541 21.2933L12.9321 21.2945C12.9117 21.2956 12.8912 21.2966 12.8707 21.2975L12.7992 21.3006L12.7344 21.3028L12.6912 21.304H12.6692C12.6557 21.304 12.6423 21.3047 12.6287 21.3049C12.6216 21.3049 12.6145 21.3049 12.6073 21.3049C12.5938 21.3049 12.5804 21.3049 12.5669 21.3055L12.5119 21.3062C12.4863 21.3062 12.4608 21.3062 12.4349 21.3062C12.3746 21.3062 12.3145 21.3056 12.2544 21.3044C12.2382 21.3044 12.2215 21.3038 12.2058 21.3033C12.1919 21.3033 12.178 21.3027 12.1643 21.3022L12.1128 21.3007L12.0487 21.2983L11.991 21.2957L11.976 21.2951L11.921 21.2922C11.9058 21.2913 11.8906 21.2906 11.8754 21.2896L11.8399 21.2875C11.7951 21.2846 11.7505 21.2815 11.706 21.278L11.6593 21.2743C11.6396 21.2728 11.62 21.271 11.6004 21.2692C11.5774 21.2673 11.5544 21.2651 11.5315 21.2629C11.4928 21.2593 11.4544 21.2554 11.416 21.2511H11.4142C11.9759 19.998 11.6918 18.8277 10.5568 17.6935C9.80992 16.9509 9.31459 15.853 9.21192 15.612C9.00394 14.8985 8.45343 14.1053 7.5394 14.1053C7.46209 14.1054 7.38491 14.1115 7.30855 14.1235C6.90809 14.1865 6.55798 14.417 6.30823 14.7639C6.03836 14.4282 5.77607 14.1613 5.53874 14.0106C5.18116 13.7839 4.82423 13.6689 4.47642 13.6689C4.04243 13.6689 3.6545 13.8471 3.38409 14.1704L3.37727 14.1786C3.3721 14.1573 3.36716 14.1361 3.3621 14.1146L3.36144 14.1119C3.34627 14.0464 3.33162 13.9804 3.31747 13.914C3.29424 13.8034 3.27302 13.692 3.25382 13.5799C3.2465 13.5359 3.23917 13.4915 3.23184 13.4466C3.23184 13.4451 3.23184 13.4437 3.23118 13.4421C3.22854 13.4253 3.22601 13.4084 3.22348 13.3916C3.22195 13.3816 3.22041 13.3715 3.21898 13.3614C3.21645 13.3442 3.21392 13.3268 3.2115 13.3096C3.20832 13.2869 3.20513 13.2642 3.20216 13.2415C3.19919 13.2189 3.19611 13.1961 3.19326 13.1734C3.1904 13.1506 3.18765 13.1279 3.1849 13.1051C3.18215 13.0824 3.17984 13.0618 3.17743 13.0401L3.17677 13.0347C3.17186 12.9897 3.16717 12.9447 3.1627 12.8995C3.15852 12.856 3.15463 12.8125 3.15104 12.769C3.15005 12.758 3.14917 12.7463 3.1483 12.7349C3.14676 12.7157 3.14533 12.6963 3.1439 12.677C3.14269 12.661 3.14159 12.6451 3.1406 12.629C3.1406 12.6253 3.14005 12.6216 3.13983 12.6181C3.1384 12.5967 3.13697 12.5753 3.13576 12.5539C3.13433 12.5307 3.13313 12.5075 3.13192 12.4843C3.13071 12.4611 3.1295 12.4379 3.12851 12.4146C3.12763 12.3943 3.12675 12.374 3.12598 12.3537L3.12532 12.3352C3.12466 12.3165 3.124 12.2977 3.12345 12.2791L3.12213 12.2312C3.12213 12.2122 3.12125 12.1931 3.12092 12.1741C3.12059 12.1551 3.12015 12.1341 3.11993 12.114C3.11971 12.0938 3.11993 12.0739 3.11938 12.0538C3.11884 12.0337 3.11938 12.0137 3.11938 11.9936C3.11938 6.84932 7.28997 2.67871 12.4347 2.67871C17.5795 2.67871 21.7485 6.8491 21.7485 11.9936Z" fill="#FFD21E"/>
<path d="M15.4595 9.58444C15.801 9.70536 15.937 10.4073 16.282 10.2239C16.5161 10.0994 16.708 9.90836 16.8335 9.67486C16.959 9.44135 17.0124 9.17589 16.987 8.91203C16.9616 8.64817 16.8585 8.39777 16.6908 8.19249C16.5231 7.98721 16.2982 7.83628 16.0447 7.75877C15.7912 7.68126 15.5204 7.68066 15.2666 7.75705C15.0127 7.83344 14.7873 7.98338 14.6186 8.18791C14.45 8.39245 14.3458 8.64239 14.3192 8.90614C14.2927 9.16988 14.3449 9.43558 14.4694 9.66963C14.6334 9.97818 15.1541 9.47661 15.4595 9.58444Z" fill="#32343D"/>
<path d="M9.14397 9.58533C8.80232 9.70624 8.66635 10.4082 8.32129 10.2247C8.08725 10.1003 7.89538 9.9092 7.76994 9.67569C7.64449 9.44219 7.59111 9.17673 7.61653 8.91289C7.64195 8.64905 7.74505 8.39866 7.91277 8.19341C8.08049 7.98815 8.30532 7.83723 8.55881 7.75973C8.81231 7.68224 9.08309 7.68164 9.33693 7.75803C9.59076 7.83441 9.81624 7.98435 9.98486 8.18887C10.1535 8.39339 10.2577 8.64332 10.2843 8.90705C10.3108 9.17078 10.2586 9.43646 10.1342 9.67052C9.96996 9.97906 9.44935 9.4775 9.14397 9.58533Z" fill="#32343D"/>
<path d="M15.8509 12.3358C15.8509 13.1289 15.4833 14.4162 14.4825 15.2048C14.2139 14.7049 13.7722 14.3202 13.2403 14.1226C13.2077 14.1105 13.1747 14.0991 13.1414 14.0885C12.9179 14.0171 12.6797 14.7849 12.4327 14.7849C12.2018 14.7849 11.9788 14.0121 11.7683 14.0749C11.4612 14.1668 11.1763 14.3211 10.9316 14.528C10.6868 14.735 10.4873 14.9902 10.3456 15.2778C9.27198 14.4973 8.88086 13.154 8.88086 12.336C8.88086 11.1297 10.441 12.9749 12.3655 12.9749C13.2899 12.9749 14.1302 12.5493 14.754 12.2405C15.4291 11.9063 15.8509 11.709 15.8509 12.3358Z" fill="#32343D"/>
<path d="M14.4822 15.2038C13.9609 15.6146 13.2681 15.89 12.3658 15.89C11.5181 15.89 10.855 15.6469 10.3457 15.2768C10.4874 14.9893 10.6868 14.734 10.9316 14.5271C11.1764 14.3201 11.4613 14.1658 11.7684 14.0739C11.9789 14.0112 12.2019 14.7839 12.4328 14.7839C12.6799 14.7839 12.918 14.0161 13.1414 14.0876C13.1746 14.0981 13.2076 14.1095 13.2404 14.1216C13.7722 14.3193 14.2137 14.704 14.4822 15.2038V15.2038Z" fill="#FF323D"/>
<path d="M18.7326 10.72C18.9049 10.72 19.0734 10.6689 19.2166 10.5732C19.3599 10.4775 19.4716 10.3414 19.5375 10.1822C19.6035 10.023 19.6207 9.84788 19.5871 9.67888C19.5535 9.50989 19.4706 9.35465 19.3488 9.23279C19.2269 9.11094 19.0717 9.02795 18.9027 8.99431C18.7337 8.96067 18.5585 8.97789 18.3993 9.0438C18.2401 9.1097 18.104 9.22134 18.0083 9.36458C17.9125 9.50782 17.8614 9.67625 17.8613 9.84855C17.8613 9.96298 17.8838 10.0763 17.9276 10.182C17.9713 10.2878 18.0355 10.3838 18.1164 10.4648C18.1973 10.5457 18.2934 10.6099 18.3991 10.6537C18.5048 10.6975 18.6182 10.72 18.7326 10.72V10.72Z" fill="#FFAD03"/>
<path d="M6.26776 10.72C6.44007 10.72 6.60851 10.6689 6.75179 10.5732C6.89506 10.4775 7.00674 10.3414 7.07269 10.1822C7.13864 10.023 7.15591 9.84788 7.12231 9.67888C7.0887 9.50989 7.00575 9.35465 6.88392 9.23279C6.76209 9.11094 6.60687 9.02795 6.43787 8.99431C6.26887 8.96067 6.0937 8.97789 5.93449 9.0438C5.77528 9.1097 5.63919 9.22134 5.54343 9.36458C5.44766 9.50782 5.39653 9.67625 5.39648 9.84855C5.39644 9.96298 5.41895 10.0763 5.46271 10.182C5.50648 10.2878 5.57065 10.3838 5.65156 10.4648C5.73247 10.5457 5.82854 10.6099 5.93427 10.6537C6.04 10.6975 6.15332 10.72 6.26776 10.72V10.72Z" fill="#FFAD03"/>
<path d="M10.1239 21.3594C10.8616 20.2775 10.8093 19.4655 9.79713 18.4539C8.78493 17.4423 8.19573 15.9629 8.19573 15.9629C8.19573 15.9629 7.97587 15.1036 7.47439 15.1825C6.97291 15.2614 6.60499 16.5455 7.655 17.3315C8.70501 18.1176 7.44614 18.6506 7.04194 17.9129C6.63775 17.1752 5.53442 15.279 4.96236 14.9163C4.39031 14.5535 3.98798 14.7569 4.12286 15.5044C4.25774 16.252 6.64907 18.0639 6.41635 18.4557C6.18364 18.8475 5.36414 17.9954 5.36414 17.9954C5.36414 17.9954 2.79825 15.6603 2.23961 16.2688C1.68097 16.8774 2.66337 17.3871 4.0635 18.2347C5.46363 19.0823 5.57245 19.3058 5.37382 19.6265C5.17518 19.9471 2.08406 17.3412 1.79375 18.4459C1.50344 19.5506 4.94862 19.8712 4.73548 20.6333C4.52233 21.3955 2.30886 19.1903 1.85608 20.0496C1.40329 20.9088 4.9794 21.9202 5.00875 21.9277C6.16418 22.2273 9.09844 22.8623 10.1239 21.3594Z" fill="#FFD21E"/>
<path d="M14.8765 21.3594C14.1388 20.2775 14.1911 19.4655 15.2033 18.4539C16.2155 17.4423 16.8047 15.9629 16.8047 15.9629C16.8047 15.9629 17.0246 15.1036 17.5261 15.1825C18.0275 15.2614 18.3955 16.5455 17.3455 17.3315C16.2954 18.1176 17.5543 18.6506 17.9585 17.9129C18.3627 17.1752 19.4655 15.279 20.0375 14.9163C20.6096 14.5535 21.012 14.7569 20.8772 15.5044C20.7423 16.252 18.3509 18.0639 18.5835 18.4557C18.8162 18.8475 19.6363 17.9949 19.6363 17.9949C19.6363 17.9949 22.2022 15.6599 22.7608 16.2684C23.3195 16.8769 22.3371 17.3866 20.937 18.2342C19.5368 19.0818 19.428 19.3054 19.6266 19.626C19.8253 19.9467 22.9164 17.3408 23.2067 18.4455C23.497 19.5502 20.0518 19.8707 20.2649 20.6329C20.4779 21.3951 22.6911 19.1894 23.1439 20.0491C23.5967 20.9088 20.0202 21.9193 19.9913 21.9268C18.8358 22.2273 15.9016 22.8623 14.8765 21.3594Z" fill="#FFD21E"/>
</svg>
